<?xml version="1.0" standalone="no"?>
<!DOCTYPE svg PUBLIC "-//W3C//DTD SVG 20010904//EN"
 "http://www.w3.org/TR/2001/REC-SVG-20010904/DTD/svg10.dtd">
<svg version="1.0" xmlns="http://www.w3.org/2000/svg"
 width="2000.000000pt" height="2000.000000pt" viewBox="0 0 2000.000000 2000.000000"
 preserveAspectRatio="xMidYMid meet">
<metadata>
Created by potrace 1.14, written by Peter Selinger 2001-2017
</metadata>
<g transform="translate(0.000000,2000.000000) scale(0.100000,-0.100000)"
fill="#000000" stroke="none">
<path d="M10340 15341 c14 -11 21 -23 17 -27 -4 -4 -7 -3 -7 3 0 6 -14 16 -30
22 -18 6 -28 6 -25 1 4 -6 2 -10 -4 -10 -5 0 -11 3 -14 8 -2 4 -2 2 -1 -5 2
-6 -4 -14 -13 -17 -8 -4 -13 -13 -9 -21 3 -10 -1 -15 -12 -15 -10 0 -13 -3 -7
-8 6 -4 11 -13 13 -21 3 -12 0 -12 -12 -2 -13 11 -14 9 -10 -13 3 -17 -2 -28
-13 -35 -17 -10 -16 -10 2 -11 11 -1 14 -4 7 -7 -6 -2 -10 -9 -6 -14 3 -5 1
-9 -4 -9 -5 0 -9 -7 -9 -15 0 -8 4 -15 9 -15 5 0 3 -6 -4 -14 -7 -8 -16 -12
-20 -9 -5 2 -8 -3 -8 -12 0 -9 4 -14 9 -10 5 3 13 0 17 -6 4 -7 3 -9 -3 -6 -6
4 -17 -1 -24 -10 -8 -9 -9 -14 -4 -11 6 4 11 -2 11 -12 0 -15 -3 -17 -16 -7
-8 6 -12 7 -8 3 4 -5 3 -15 -3 -22 -7 -8 -6 -14 2 -20 8 -5 9 -3 4 6 -6 9 -4
11 5 5 10 -6 9 -11 -5 -22 -11 -7 -14 -13 -7 -13 6 0 9 -7 6 -15 -4 -8 -11
-12 -18 -8 -7 4 -7 1 1 -9 7 -8 9 -19 5 -23 -4 -5 -1 -5 6 -1 8 5 12 -1 12
-18 0 -14 5 -28 10 -31 6 -4 8 -11 5 -16 -4 -5 6 -4 21 1 25 10 26 9 13 -7
-12 -15 -12 -16 3 -10 10 3 20 1 24 -5 5 -7 2 -8 -7 -3 -8 5 -10 4 -6 0 11
-12 37 -15 37 -4 0 5 10 7 23 5 12 -2 28 2 36 8 11 8 13 8 8 0 -4 -7 -1 -14 7
-17 18 -7 26 1 26 25 0 10 4 18 8 18 5 0 8 -10 6 -22 -1 -13 -3 -23 -4 -23 -2
0 -4 -10 -5 -22 -1 -13 2 -23 7 -23 5 0 6 -5 3 -11 -4 -6 0 -9 11 -7 13 2 18
-2 16 -12 -1 -9 5 -6 15 8 15 19 21 20 33 10 12 -11 12 -11 2 4 -10 12 -10 18
-2 23 6 4 9 14 6 22 -3 8 -1 11 4 8 6 -3 10 -1 10 5 0 6 4 8 10 5 6 -3 7 1 4
10 -4 8 0 23 7 32 12 14 12 16 0 8 -10 -5 -12 -4 -7 3 4 7 15 12 24 12 15 0
15 2 2 10 -12 8 -12 10 -1 10 11 0 11 3 1 15 -11 13 -10 14 4 9 12 -5 15 -2 9
12 -5 13 -3 15 8 9 11 -7 11 -5 -1 10 -12 15 -12 17 -1 10 11 -6 13 -4 8 8 -3
9 0 18 9 21 15 6 15 27 -1 38 -6 5 -5 8 4 8 10 0 11 3 2 14 -9 11 -9 16 0 22
8 5 9 3 4 -6 -5 -8 -4 -11 3 -7 5 4 9 15 7 25 -1 9 3 23 9 31 9 12 8 13 -3 6
-11 -6 -13 -1 -9 24 3 18 0 35 -5 38 -6 3 -7 1 -3 -5 3 -6 2 -13 -3 -16 -11
-7 -9 13 3 33 7 11 5 13 -8 8 -14 -6 -16 -3 -11 14 5 15 4 19 -4 15 -6 -4 -11
0 -11 8 0 9 -7 16 -16 16 -8 0 -13 3 -11 8 3 4 -1 13 -9 20 -8 7 -14 9 -15 5
0 -4 -5 3 -10 17 -10 24 -11 24 -25 6 -8 -11 -14 -14 -14 -8 0 7 -7 12 -16 12
-8 0 -13 -4 -10 -9 3 -5 -1 -11 -9 -15 -9 -3 -19 3 -25 14 -6 11 -20 24 -33
30 -19 10 -19 9 3 -9z m117 -33 c-3 -8 -6 -5 -6 6 -1 11 2 17 5 13 3 -3 4 -12
1 -19z m110 -193 c0 -8 -4 -12 -9 -9 -5 3 -6 10 -3 15 9 13 12 11 12 -6z m-12
-95 c3 -5 1 -10 -4 -10 -6 0 -11 5 -11 10 0 6 2 10 4 10 3 0 8 -4 11 -10z
m-198 -192 c-3 -8 -6 -5 -6 6 -1 11 2 17 5 13 3 -3 4 -12 1 -19z"/>
<path d="M8801 15293 c-1 -6 -10 -9 -23 -5 -17 4 -20 2 -14 -13 5 -15 4 -16
-8 -6 -9 7 -17 8 -20 2 -3 -5 0 -12 6 -14 8 -4 7 -6 -4 -6 -9 -1 -20 -6 -24
-13 -4 -7 -3 -8 4 -4 7 4 12 3 12 -3 0 -5 -6 -14 -12 -18 -7 -4 -14 -19 -15
-33 -2 -34 -8 -58 -16 -66 -4 -4 -1 -14 6 -22 10 -13 9 -15 -5 -9 -15 5 -16 4
-5 -14 10 -16 9 -21 -3 -29 -10 -6 -11 -10 -2 -10 6 0 12 -7 12 -16 0 -8 -4
-13 -9 -9 -5 3 -13 0 -17 -6 -4 -7 -3 -9 4 -5 6 3 13 2 16 -3 4 -5 2 -12 -4
-16 -13 -8 -13 -25 1 -25 5 0 7 5 3 12 -4 7 -3 8 5 4 9 -6 9 -11 0 -22 -6 -8
-8 -14 -3 -14 5 0 2 -5 -6 -10 -13 -9 -13 -10 0 -10 13 0 13 -1 0 -10 -8 -5
-10 -10 -4 -10 7 0 15 -7 18 -16 3 -8 2 -12 -3 -9 -5 3 -12 1 -16 -5 -3 -5 0
-10 8 -10 8 0 18 -7 21 -16 6 -15 4 -15 -11 -3 -16 13 -17 12 -4 -3 7 -10 18
-18 23 -18 5 0 16 -7 25 -15 8 -8 19 -13 24 -10 5 4 9 1 9 -6 0 -10 3 -10 12
-1 19 19 32 14 17 -5 -13 -17 -13 -17 5 -3 11 8 21 14 23 13 9 -7 23 -2 23 8
0 8 -6 7 -17 -2 -15 -13 -15 -12 -3 8 13 20 15 20 27 5 8 -12 12 -13 13 -4 0
7 5 10 12 6 7 -4 8 -3 4 5 -4 6 -12 9 -17 5 -6 -3 -5 3 3 15 7 12 18 21 24 21
6 0 18 8 25 18 11 14 11 15 -1 5 -20 -19 -29 -16 -23 7 4 16 9 18 24 9 12 -6
17 -15 12 -22 -11 -17 -11 -30 0 -45 7 -9 6 -11 -6 -7 -8 4 -18 1 -23 -6 -4
-8 -3 -10 4 -5 7 4 12 2 12 -3 0 -6 -5 -11 -10 -11 -6 0 -5 -6 2 -14 9 -10 15
-11 20 -2 5 7 8 3 9 -9 0 -18 1 -19 8 -2 4 10 10 18 14 18 25 -3 29 1 12 13
-18 13 -18 14 3 27 16 10 18 16 10 26 -8 11 -7 12 7 7 14 -6 16 -3 10 16 -5
15 -4 20 4 16 8 -5 8 0 1 20 -9 24 -9 25 5 14 13 -11 15 -9 11 11 -2 13 1 29
5 35 6 7 5 23 -1 39 -9 24 -8 26 6 21 14 -6 15 -4 4 9 -16 19 -20 66 -5 57 5
-3 4 2 -4 11 -11 14 -11 17 0 18 8 0 5 4 -6 9 -11 5 -14 9 -7 9 15 1 16 31 1
31 -6 0 -9 9 -6 20 5 21 -23 46 -38 32 -5 -4 -5 -1 -1 6 4 7 13 10 19 6 7 -3
4 1 -6 9 -9 8 -31 13 -47 12 -16 -1 -27 1 -24 6 9 16 -39 10 -57 -7 -13 -12
-19 -12 -25 -3 -4 8 -3 10 4 5 7 -4 12 -2 12 3 0 6 -9 11 -19 11 -11 0 -22 8
-24 18 -3 9 -5 12 -6 5z m96 -191 c7 -4 11 -18 9 -29 -4 -17 -1 -20 12 -16 15
6 16 5 2 -12 -8 -10 -10 -16 -3 -12 8 5 11 -5 9 -33 -2 -23 0 -43 4 -45 10 -6
0 -55 -11 -55 -12 0 -11 7 2 33 9 20 9 20 -9 -2 -10 -13 -25 -21 -33 -18 -11
4 -10 6 3 6 15 1 19 23 6 37 -4 3 -4 12 -1 20 3 8 -1 14 -8 14 -7 0 -9 3 -6 6
4 4 12 2 20 -4 10 -8 13 -6 13 8 0 10 -4 16 -8 14 -7 -5 -10 4 -7 22 0 4 -5
11 -13 15 -10 7 -10 9 2 9 12 1 12 3 -2 11 -10 5 -15 16 -12 24 7 17 13 18 31
7z m131 -127 c-3 -3 -9 2 -12 12 -6 14 -5 15 5 6 7 -7 10 -15 7 -18z m-78
-179 c0 -2 -7 -7 -16 -10 -8 -3 -12 -2 -9 4 6 10 25 14 25 6z"/>
<path d="M8876 15092 c-3 -5 1 -9 9 -9 8 0 12 4 9 9 -3 4 -7 8 -9 8 -2 0 -6
-4 -9 -8z"/>
<path d="M8895 14960 c3 -5 8 -10 11 -10 2 0 4 5 4 10 0 6 -5 10 -11 10 -5 0
-7 -4 -4 -10z"/>
<path d="M8936 15273 c-6 -14 -5 -15 5 -6 7 7 10 15 7 18 -3 3 -9 -2 -12 -12z"/>
<path d="M11873 15225 c-6 -7 -9 -16 -5 -21 4 -4 2 -4 -4 -1 -12 7 -30 -9 -34
-28 -6 -26 -13 -35 -29 -35 -13 0 -13 -2 -2 -9 11 -7 10 -11 -6 -19 -13 -8
-19 -20 -17 -41 1 -17 -2 -28 -7 -25 -5 3 -9 -5 -9 -16 0 -14 -5 -20 -13 -17
-8 3 -14 -1 -14 -9 0 -7 4 -11 8 -8 4 2 11 -1 15 -7 5 -8 3 -9 -5 -5 -8 5 -14
1 -18 -12 -3 -14 -10 -19 -21 -14 -15 5 -15 4 1 -12 15 -15 16 -36 1 -36 -3 0
-2 5 1 10 3 6 1 10 -4 10 -10 0 -12 -5 -15 -38 -1 -7 -6 -16 -11 -20 -6 -4
-16 -18 -23 -31 -12 -21 -12 -23 2 -18 13 5 14 3 4 -13 -9 -14 -14 -16 -20 -7
-4 7 -8 8 -8 3 0 -5 8 -18 17 -28 15 -17 15 -18 1 -13 -13 5 -15 2 -11 -14 3
-12 10 -21 15 -21 5 0 7 -4 3 -9 -3 -6 3 -15 12 -21 16 -10 16 -11 1 -6 -12 3
-15 1 -11 -9 3 -8 9 -12 14 -9 5 3 9 -1 9 -9 0 -8 7 -20 15 -27 18 -15 85 -19
85 -6 0 6 5 5 12 -2 7 -7 17 -8 28 -2 12 6 17 5 17 -6 0 -7 -6 -14 -13 -14 -7
0 -16 -5 -20 -12 -5 -8 -2 -9 9 -5 10 3 17 2 17 -3 0 -6 -5 -10 -10 -10 -7 0
-7 -6 -2 -17 5 -10 7 -24 5 -31 -3 -8 1 -10 12 -6 9 4 20 1 25 -5 5 -9 9 -8
13 4 5 10 3 14 -5 9 -7 -4 -8 -3 -4 4 4 7 12 12 17 12 6 0 17 7 26 15 8 8 20
12 26 8 7 -4 7 0 -1 9 -11 14 -10 18 8 28 12 6 18 16 13 23 -4 7 2 5 12 -3 15
-12 17 -12 10 -1 -5 9 -2 19 11 29 16 12 16 14 2 9 -10 -3 -20 -2 -23 4 -4 5
-1 8 7 7 7 -2 12 3 10 10 -1 8 2 11 8 7 7 -4 10 0 8 11 -2 12 2 18 11 16 12
-3 12 -1 0 14 -9 12 -9 15 -1 10 7 -4 12 -2 12 4 0 6 4 9 8 6 5 -3 9 1 9 9 0
8 -3 12 -7 10 -4 -2 -7 2 -7 10 0 8 5 11 10 8 6 -4 8 0 4 10 -4 12 -1 17 11
17 13 0 14 2 3 9 -9 6 -10 11 -2 15 15 10 14 29 -1 21 -7 -4 -6 -1 3 7 9 7 14
19 12 26 -3 6 0 12 6 12 6 0 11 5 11 11 0 5 -4 8 -9 5 -8 -5 -8 15 -1 34 1 3
2 8 1 12 0 4 7 4 17 1 13 -5 11 1 -8 23 -14 15 -18 23 -10 17 14 -11 17 4 11
70 -1 5 -5 5 -11 2 -5 -3 -10 3 -10 15 0 12 -4 18 -10 15 -14 -9 -12 8 3 24
10 11 9 13 -5 8 -11 -4 -19 1 -23 14 -4 10 -11 17 -16 14 -5 -4 -9 -2 -9 4 0
6 -7 8 -15 5 -8 -4 -13 -10 -10 -14 3 -5 -4 -6 -15 -3 -11 3 -20 10 -20 15 0
5 5 6 12 2 7 -4 8 -3 4 4 -4 6 -14 8 -24 5 -15 -6 -16 -5 -2 13 8 10 10 16 5
11 -4 -4 -17 1 -28 10 -11 10 -17 13 -14 6 4 -6 3 -14 -2 -17 -5 -4 -11 0 -13
8 -2 11 -5 12 -15 1z m-131 -579 c7 4 8 2 4 -4 -8 -14 -46 2 -46 19 0 6 7 3
16 -5 8 -9 20 -13 26 -10z m81 -1 c-3 -9 -8 -14 -10 -11 -3 3 -2 9 2 15 9 16
15 13 8 -4z"/>
<path d="M11809 15163 c-13 -16 -12 -17 4 -4 16 13 21 21 13 21 -2 0 -10 -8
-17 -17z"/>
<path d="M6766 15069 c5 -9 2 -10 -10 -6 -11 5 -15 3 -10 -5 5 -7 2 -9 -8 -5
-12 4 -15 0 -13 -19 2 -19 -1 -22 -10 -14 -9 8 -15 8 -20 0 -3 -5 0 -10 7 -10
10 0 10 -2 -1 -9 -8 -5 -11 -16 -7 -26 5 -13 2 -16 -9 -11 -11 4 -14 2 -8 -7
12 -19 14 -47 4 -47 -5 0 -12 6 -14 13 -4 7 -6 8 -6 1 -1 -6 6 -17 15 -25 14
-11 13 -15 -8 -31 -13 -10 -18 -18 -13 -17 6 1 17 1 25 0 13 -1 13 -3 0 -10
-8 -6 -19 -7 -25 -3 -5 3 -5 -1 2 -9 7 -9 9 -20 3 -29 -6 -9 -4 -20 3 -29 15
-18 13 -23 -10 -32 -16 -7 -16 -8 -1 -8 17 -1 22 -41 5 -41 -5 0 -4 -6 2 -14
9 -11 9 -15 -1 -19 -8 -4 -7 -6 4 -6 12 -1 15 -6 11 -18 -5 -12 -2 -15 10 -10
9 3 17 2 17 -3 0 -5 -8 -11 -17 -13 -14 -4 -12 -5 5 -6 15 -1 22 -7 22 -20 0
-23 23 -34 38 -19 8 8 13 6 18 -7 7 -18 8 -18 15 1 6 16 8 16 8 2 1 -11 6 -15
16 -12 8 4 12 11 8 18 -3 6 -1 6 8 -1 16 -16 29 -17 29 -2 0 5 -6 7 -12 3 -9
-5 -9 -2 1 9 15 19 36 24 25 6 -4 -7 2 -6 17 2 23 12 23 12 4 20 -15 5 -16 8
-4 8 23 1 30 -9 18 -30 -6 -13 -6 -19 1 -19 5 0 10 -5 10 -11 0 -5 -6 -7 -12
-3 -7 4 -10 3 -5 -1 23 -26 86 -4 81 28 -2 13 2 17 12 13 12 -5 12 -2 3 17
-11 19 -10 20 3 10 12 -10 15 -10 15 2 0 8 -3 15 -7 15 -9 0 -6 38 5 47 4 5 5
2 1 -4 -5 -9 -2 -11 8 -7 14 5 14 8 1 21 -17 17 -20 33 -5 33 5 0 7 7 4 15 -3
8 -2 20 2 27 12 18 14 39 4 33 -10 -6 -7 35 4 53 4 7 3 12 -1 12 -5 0 -9 9 -9
19 0 11 3 18 6 16 8 -5 5 20 -5 53 -4 13 -15 22 -27 22 -10 0 -17 4 -14 8 3 5
-7 8 -22 7 -17 -1 -28 -7 -30 -19 -3 -16 -6 -16 -14 -5 -7 10 -8 8 -5 -9 3
-12 2 -20 -3 -17 -11 7 -18 -62 -7 -81 8 -13 6 -14 -11 -5 -12 6 -24 16 -28
23 -4 7 -3 8 4 4 7 -4 12 -1 12 9 0 9 -4 14 -8 11 -4 -2 -12 11 -18 29 -6 19
-7 32 -3 30 17 -11 16 25 -2 41 -10 9 -19 25 -19 35 0 11 -14 26 -31 35 -21
10 -29 11 -23 3z m19 -19 c-3 -5 -12 -10 -18 -10 -7 0 -6 4 3 10 19 12 23 12
15 0z m59 -68 c3 -5 -1 -9 -9 -9 -8 0 -12 4 -9 9 3 4 7 8 9 8 2 0 6 -4 9 -8z
m170 -63 c-3 -5 -11 -9 -17 -8 -8 0 -8 2 1 6 10 4 10 8 0 21 -12 15 -11 16 4
3 10 -7 15 -17 12 -22z"/>
<path d="M6850 14936 c0 -2 8 -10 18 -17 15 -13 16 -12 3 4 -13 16 -21 21 -21
13z"/>
<path d="M13491 14910 c-1 -18 -4 -21 -10 -12 -6 10 -10 5 -14 -17 -4 -17 -12
-31 -18 -31 -8 0 -8 4 0 14 9 11 9 16 0 22 -8 4 -9 3 -5 -5 4 -6 0 -14 -9 -17
-13 -5 -14 -8 -3 -15 10 -6 9 -12 -7 -24 -11 -9 -13 -13 -5 -9 13 7 13 5 1 -9
-11 -13 -11 -17 -1 -17 8 0 10 -3 7 -6 -4 -4 -13 -2 -20 4 -10 9 -14 8 -14 -3
0 -8 4 -15 9 -15 4 0 0 -8 -9 -18 -10 -11 -22 -16 -28 -13 -5 2 -5 -2 2 -10 9
-11 8 -18 -1 -32 -7 -9 -17 -17 -21 -17 -5 0 0 10 11 23 17 20 16 20 -9 -2
-26 -24 -36 -38 -18 -27 5 3 9 -6 9 -19 0 -20 -3 -23 -12 -13 -6 7 -10 11 -8
9 1 -2 -5 -15 -13 -27 -9 -14 -11 -25 -5 -29 13 -8 13 -25 -1 -25 -5 0 -8 4
-5 8 3 5 -1 9 -9 9 -10 0 -12 -4 -5 -12 5 -7 6 -16 2 -20 -4 -5 -1 -5 5 -1 9
5 11 -1 7 -22 -4 -22 -2 -31 11 -35 10 -4 13 -12 9 -19 -5 -8 0 -7 11 2 10 8
16 11 13 5 -3 -5 0 -16 8 -23 8 -7 14 -10 14 -7 0 3 10 1 21 -6 12 -6 19 -7
15 -1 -3 5 1 13 10 16 8 3 12 2 9 -4 -3 -6 -2 -10 4 -10 5 0 15 8 20 18 9 14
10 14 11 1 0 -8 -5 -20 -10 -25 -7 -7 -6 -11 4 -11 8 0 13 3 11 7 -2 3 0 12 5
20 6 9 8 2 6 -20 -2 -25 -8 -35 -19 -34 -15 2 -15 -1 -2 -19 13 -18 12 -22 -3
-34 -16 -12 -15 -13 2 -6 15 5 18 3 13 -10 -5 -14 -3 -16 12 -8 10 6 22 7 26
3 5 -4 5 -1 1 6 -4 7 -12 10 -17 7 -15 -10 -10 2 8 16 9 8 14 9 10 3 -4 -7 0
-14 8 -18 8 -3 14 -2 14 2 -3 20 2 33 11 27 6 -3 10 -1 10 5 0 6 4 8 10 5 6
-4 7 1 3 11 -4 12 -3 15 5 10 8 -5 10 -2 6 8 -4 9 -1 16 6 16 8 0 11 9 8 25
-5 22 -3 24 11 13 9 -7 13 -8 9 -4 -4 5 -2 16 5 24 10 13 9 14 -2 8 -9 -6 -12
-5 -10 3 3 7 8 12 13 11 13 -3 25 21 21 42 -2 10 1 18 7 18 6 0 8 3 5 7 -4 3
-2 13 5 20 9 11 9 17 -3 25 -11 8 -11 9 3 5 20 -7 31 16 15 33 -9 10 -9 11 1
6 6 -4 12 -2 12 4 0 6 4 9 8 6 4 -2 9 5 9 17 2 17 0 19 -7 7 -5 -8 -10 -11
-10 -6 0 6 10 21 22 35 13 14 16 20 8 14 -22 -20 -32 -15 -18 7 11 17 10 22
-2 30 -13 9 -13 10 0 10 13 0 13 2 1 9 -8 5 -11 16 -8 25 4 9 3 15 -1 15 -20
-3 -23 3 -11 18 8 9 9 14 3 10 -7 -4 -17 0 -24 8 -10 12 -16 13 -28 3 -10 -8
-13 -9 -9 -2 4 7 0 14 -8 17 -9 4 -12 1 -9 -8 4 -9 -1 -13 -12 -11 -10 2 -20
8 -22 14 -2 7 -9 9 -15 5 -7 -4 -6 1 2 10 7 9 12 17 10 18 -31 6 -38 6 -33 -2
3 -5 1 -9 -5 -9 -5 0 -12 6 -14 13 -3 6 -6 1 -6 -13z m147 -55 c-3 -3 -9 2
-12 12 -6 14 -5 15 5 6 7 -7 10 -15 7 -18z m-308 -341 c0 -2 -7 -4 -15 -4 -8
0 -15 4 -15 10 0 5 7 7 15 4 8 -4 15 -8 15 -10z"/>
<path d="M8900 14840 c-9 -6 -10 -10 -3 -10 6 0 15 5 18 10 8 12 4 12 -15 0z"/>
<path d="M10276 14803 c-6 -14 -5 -15 5 -6 7 7 10 15 7 18 -3 3 -9 -2 -12 -12z"/>
<path d="M5256 14618 c5 -7 2 -9 -9 -5 -11 4 -14 2 -10 -9 4 -10 0 -12 -13 -7
-11 4 -15 3 -11 -5 4 -6 -1 -13 -10 -15 -15 -4 -15 -5 2 -6 16 -1 17 -3 6 -10
-8 -5 -16 -17 -17 -25 -1 -9 2 -14 7 -10 5 3 9 0 9 -5 0 -6 -6 -11 -12 -11 -9
0 -8 -4 2 -10 10 -6 11 -10 3 -10 -7 0 -13 -5 -13 -11 0 -5 4 -8 9 -4 10 6 8
-17 -4 -47 -5 -12 -2 -18 6 -18 11 0 11 -3 -1 -10 -13 -9 -13 -10 0 -10 13 0
13 -1 0 -10 -13 -9 -13 -10 0 -10 13 0 13 -1 0 -10 -11 -7 -11 -10 -2 -10 7 0
10 -4 7 -10 -3 -5 -1 -10 4 -10 6 0 11 -4 11 -10 0 -5 -7 -10 -16 -10 -8 0
-12 -5 -9 -10 4 -6 10 -8 15 -5 5 3 12 0 16 -6 4 -8 3 -9 -4 -5 -7 4 -12 2
-12 -3 0 -6 5 -11 12 -11 9 0 9 -3 0 -12 -14 -14 -16 -32 -3 -23 5 3 9 -9 9
-27 -1 -17 4 -34 11 -36 9 -3 9 -7 0 -19 -7 -8 -8 -13 -3 -12 21 4 28 -2 14
-11 -13 -8 -12 -12 4 -27 19 -17 19 -17 6 2 -15 20 -14 20 8 1 23 -20 30 -32
12 -21 -5 3 -10 2 -10 -3 0 -12 29 -24 41 -17 5 4 6 -2 2 -12 -6 -16 -5 -16
10 -4 15 12 17 12 12 -1 -4 -9 0 -15 9 -15 8 0 13 4 10 9 -3 4 0 8 5 8 6 0 11
-4 11 -10 0 -5 5 -10 11 -10 5 0 8 4 4 9 -3 5 0 13 6 17 8 4 9 3 5 -4 -11 -19
5 -14 21 6 8 9 12 11 8 5 -3 -8 0 -13 9 -13 9 0 13 8 12 24 -3 19 1 23 25 22
16 -1 39 -12 51 -25 l23 -23 -22 13 c-13 8 -23 18 -23 24 0 5 -5 3 -10 -5 -5
-8 -10 -19 -10 -25 0 -5 4 -4 8 3 6 9 13 8 28 -6 19 -18 20 -18 39 1 11 11 14
17 8 13 -18 -10 -16 9 2 24 14 11 14 15 -1 38 -9 13 -11 21 -5 18 7 -5 11 7
11 38 0 26 -5 47 -12 50 -7 3 -3 3 10 0 12 -3 22 -1 22 5 0 6 -6 10 -12 9 -8
-2 -12 6 -10 20 2 13 -5 33 -15 45 -12 15 -13 18 -2 9 13 -9 16 -9 16 3 0 8
-6 16 -13 19 -7 3 -10 14 -7 27 5 16 3 20 -6 14 -10 -6 -11 -3 -2 13 11 21 5
56 -9 47 -5 -3 -6 5 -2 17 4 16 2 19 -9 13 -8 -5 -5 2 6 14 11 12 15 22 10 21
-20 -4 -35 0 -35 11 0 5 4 7 10 4 6 -3 7 1 4 9 -3 9 -10 13 -15 10 -5 -3 -9 2
-9 11 0 24 -52 66 -67 53 -7 -6 -20 -7 -29 -4 -13 5 -14 4 -6 -7 9 -11 7 -13
-11 -12 -12 1 -30 -2 -41 -7 -13 -7 -16 -7 -12 1 4 6 2 11 -4 11 -6 0 -8 5 -4
13 5 7 2 7 -10 -2 -12 -11 -16 -11 -14 -2 2 7 -7 17 -20 22 -17 6 -21 6 -16
-3z m189 -18 c3 -5 1 -10 -4 -10 -6 0 -11 5 -11 10 0 6 2 10 4 10 3 0 8 -4 11
-10z m-82 -46 c-4 -12 -8 -13 -14 -3 -9 15 -2 32 11 24 5 -3 6 -13 3 -21z
m177 -130 c0 -8 -19 -13 -24 -6 -3 5 1 9 9 9 8 0 15 -2 15 -3z m-40 -306 c0
-4 -9 -7 -20 -5 -29 5 -33 13 -5 13 14 0 25 -4 25 -8z"/>
<path d="M14865 13959 c4 -11 -2 -14 -29 -14 -19 1 -33 -2 -30 -7 3 -4 2 -13
-2 -19 -4 -8 -9 -7 -15 2 -7 11 -9 11 -9 1 0 -7 -5 -10 -11 -6 -8 4 -8 0 0
-15 10 -18 9 -20 -6 -14 -12 5 -15 2 -10 -10 3 -9 3 -16 -1 -16 -21 3 -32 -2
-26 -13 5 -8 2 -9 -9 -5 -10 3 -17 2 -17 -4 0 -6 -5 -7 -12 -3 -7 4 -8 3 -4
-5 4 -6 13 -9 19 -5 7 3 4 -1 -5 -9 -10 -8 -14 -18 -10 -23 4 -4 -1 -2 -10 5
-15 11 -18 9 -24 -13 -3 -14 -10 -23 -15 -20 -5 3 -9 0 -9 -6 0 -7 -7 -9 -16
-6 -15 6 -15 4 -3 -11 9 -11 10 -14 2 -9 -8 4 -13 2 -13 -5 0 -8 -4 -8 -16 1
-8 8 -14 9 -13 4 5 -26 -2 -46 -15 -41 -20 8 -28 -4 -13 -21 10 -13 9 -14 -1
-8 -14 8 -42 -10 -42 -27 0 -6 6 -2 14 9 14 19 14 19 13 -1 -1 -11 -8 -23 -16
-26 -8 -3 -15 -13 -17 -22 -1 -10 2 -14 8 -10 7 4 9 -2 6 -15 -4 -12 -2 -25 3
-28 5 -3 7 -10 4 -15 -3 -5 0 -6 8 -4 7 3 25 -5 40 -19 15 -14 27 -21 27 -16
0 6 5 10 11 10 6 0 8 -7 5 -16 -5 -14 -4 -15 9 -4 8 7 15 8 15 3 0 -5 7 -10
15 -10 11 0 12 4 3 14 -8 11 -7 12 6 7 10 -4 16 -18 16 -40 0 -20 5 -34 13
-34 8 0 7 -4 -3 -11 -13 -9 -13 -10 1 -6 9 3 22 0 29 -6 10 -9 11 -9 6 1 -4 6
-2 12 3 12 6 0 11 -8 12 -17 0 -15 2 -15 7 -3 4 8 16 17 27 18 11 2 25 8 32
13 7 7 13 5 16 -3 3 -8 6 -6 6 6 1 16 3 17 18 5 14 -12 16 -12 8 0 -6 11 -4
13 10 7 16 -6 16 -4 4 11 -12 15 -12 16 3 10 11 -4 17 -2 15 6 -1 7 6 11 16 9
9 -2 17 2 17 8 0 6 5 8 10 5 9 -5 14 7 11 27 0 4 8 5 19 3 22 -4 27 10 8 19
-7 4 -3 4 10 2 12 -2 20 0 17 4 -3 5 -1 11 4 15 6 3 8 12 5 20 -4 8 1 17 9 21
9 3 13 13 9 26 -3 14 -1 19 6 14 7 -4 12 -3 12 3 0 5 -6 12 -12 14 -10 4 -10
6 0 6 15 1 16 41 1 41 -6 0 -1 9 12 21 13 11 19 18 13 15 -6 -3 -11 1 -11 9 0
8 4 12 9 9 4 -3 8 0 8 5 0 6 -6 11 -12 11 -9 0 -8 4 2 10 10 6 11 10 3 10 -15
0 -13 21 2 33 6 4 1 7 -10 5 -14 -2 -21 3 -23 20 -3 20 -6 21 -20 10 -12 -10
-14 -10 -8 0 5 9 -2 11 -31 8 -35 -3 -38 -1 -40 23 l-1 26 15 -25 c9 -16 12
-18 7 -5 -3 11 -7 28 -8 38 -1 9 -8 23 -15 30 -10 9 -11 8 -5 -8 6 -18 4 -17
-20 5 -15 14 -25 18 -21 9z m-330 -417 c-3 -3 -11 0 -18 7 -9 10 -8 11 6 5 10
-3 15 -9 12 -12z"/>
<path d="M3925 13772 c-27 -21 -50 -44 -50 -52 0 -8 -4 -21 -8 -27 -6 -9 -3
-11 7 -7 9 3 16 1 16 -5 0 -6 -4 -11 -9 -11 -6 0 -9 -9 -8 -20 1 -11 5 -20 10
-20 5 0 7 -9 4 -21 -5 -17 -3 -18 9 -8 8 7 14 8 13 3 -5 -26 2 -35 24 -29 16
5 18 4 8 -3 -11 -8 -10 -14 9 -33 13 -13 20 -19 16 -12 -3 6 -1 15 5 19 7 4 9
3 5 -4 -3 -6 -2 -13 4 -17 6 -4 8 -10 5 -15 -3 -5 4 -14 16 -20 16 -9 20 -9
14 0 -6 9 -2 9 14 1 11 -7 21 -19 21 -29 0 -15 2 -15 10 -2 9 13 10 13 10 0 0
-20 57 -53 64 -37 2 7 3 -3 1 -21 -2 -18 0 -30 6 -26 5 3 7 10 4 15 -3 5 1 6
9 3 9 -3 16 -10 16 -16 0 -5 4 -7 9 -3 5 3 13 0 17 -6 4 -7 3 -9 -4 -5 -6 3
-14 2 -17 -4 -4 -6 -3 -10 2 -9 27 5 53 -3 53 -16 0 -9 6 -12 15 -9 8 4 15 1
15 -5 0 -6 5 -11 11 -11 5 0 7 6 4 13 -4 6 2 1 13 -12 11 -13 24 -21 31 -17 6
4 11 3 11 -2 0 -6 9 -8 20 -5 11 3 20 1 20 -5 0 -5 7 -12 14 -15 10 -4 13 -1
9 9 -3 7 0 14 6 14 6 0 11 -4 11 -10 0 -5 5 -10 11 -10 6 0 9 7 6 15 -4 8 -1
17 5 21 7 5 8 2 4 -7 -4 -8 -1 -5 8 5 8 10 12 24 9 30 -4 6 1 5 10 -3 9 -7 14
-18 10 -24 -3 -6 -1 -7 6 -3 6 4 9 12 6 17 -4 5 -1 9 5 9 6 0 8 5 5 11 -4 6 0
9 10 7 10 -2 20 4 22 12 4 13 3 13 -6 0 -8 -11 -11 -11 -11 -2 0 7 10 17 23
22 22 9 22 9 -3 10 -23 1 -23 2 -5 9 l20 8 -20 5 c-16 5 -16 6 -3 7 11 1 15 6
12 16 -4 8 -11 12 -18 8 -6 -4 -5 1 2 10 12 14 11 16 -7 12 -18 -3 -20 -1 -11
16 6 10 7 19 3 18 -22 -4 -30 4 -43 36 -10 25 -16 32 -23 23 -6 -9 -7 -6 -4 9
3 14 1 20 -8 17 -16 -6 -67 54 -59 68 4 6 3 8 -3 5 -5 -3 -15 3 -23 13 -8 10
-17 17 -22 14 -4 -3 -8 0 -8 7 0 7 -3 10 -6 6 -3 -3 -17 5 -31 19 -17 17 -31
23 -46 19 -13 -4 -17 -3 -11 2 9 6 8 11 -1 20 -11 10 -15 10 -18 0 -4 -9 -6
-9 -6 1 -1 6 -8 12 -17 12 -9 0 -12 -5 -8 -12 4 -7 4 -10 -1 -6 -4 4 -15 2
-24 -5 -14 -10 -14 -10 -3 4 10 14 10 18 -2 22 -9 4 -21 1 -28 -6 -8 -7 -20
-13 -27 -15 -12 -3 -12 0 0 14 8 10 9 15 3 11 -7 -4 -17 -1 -23 6 -13 17 -74
10 -64 -7 4 -7 1 -6 -9 1 -8 7 -19 9 -23 5 -5 -4 -5 -1 -1 6 4 7 12 9 18 6 7
-4 8 -2 4 4 -9 15 -3 18 -61 -26z m-21 -40 c3 -5 -1 -9 -9 -9 -8 0 -12 4 -9 9
3 4 7 8 9 8 2 0 6 -4 9 -8z"/>
<path d="M4380 13626 c0 -2 7 -9 15 -16 9 -7 15 -8 15 -2 0 5 -7 12 -15 16 -8
3 -15 4 -15 2z"/>
<path d="M13400 13610 c0 -7 -3 -10 -7 -7 -3 4 -12 2 -19 -4 -7 -6 -19 -7 -26
-3 -19 12 -62 11 -70 -1 -5 -6 -11 -5 -17 4 -5 8 -10 9 -12 3 -6 -17 -55 -21
-82 -7 -23 12 -24 11 -21 -9 2 -11 2 -15 -2 -8 -3 6 -15 12 -25 12 -13 0 -18
-4 -13 -12 4 -7 -2 -5 -14 6 -20 17 -22 17 -28 2 -6 -15 -8 -15 -21 1 -12 14
-14 15 -10 2 3 -9 -1 -16 -9 -16 -7 0 -11 4 -9 8 3 3 -4 9 -15 12 -11 3 -23 0
-27 -5 -3 -7 -1 -8 5 -4 7 4 12 2 12 -3 0 -14 -17 -14 -25 -1 -5 8 -12 7 -23
-2 -12 -10 -14 -10 -8 0 4 6 2 12 -3 12 -6 0 -11 -6 -11 -12 0 -7 -5 -5 -11 5
-9 15 -13 16 -26 5 -17 -14 -46 -20 -38 -8 2 4 -11 7 -29 6 -19 0 -32 -4 -29
-8 2 -5 -1 -8 -6 -8 -6 0 -11 5 -11 11 0 8 -5 8 -15 -1 -8 -7 -15 -8 -15 -3 0
5 -7 10 -15 10 -8 0 -12 -4 -9 -9 3 -4 -2 -8 -11 -8 -9 0 -13 5 -9 11 5 8 1 8
-14 0 -27 -14 -35 -14 -26 2 4 6 -3 3 -15 -7 -19 -17 -21 -17 -15 -3 5 13 2
16 -10 11 -9 -3 -13 -11 -10 -16 4 -6 -2 -5 -14 1 -25 13 -35 14 -27 2 3 -5 0
-13 -6 -17 -7 -4 -9 -3 -6 3 4 6 -2 13 -13 16 -11 3 -20 1 -20 -5 0 -5 -5 -6
-10 -3 -6 4 -8 12 -4 18 3 7 -2 3 -10 -7 -12 -15 -16 -16 -17 -5 0 8 -4 6 -9
-6 l-9 -20 0 20 c-1 17 -3 17 -11 5 -8 -13 -10 -13 -10 -1 0 11 -4 10 -16 -5
-13 -15 -15 -16 -10 -2 3 12 1 15 -9 11 -8 -3 -12 -10 -8 -17 3 -6 1 -6 -8 2
-15 14 -33 17 -25 4 3 -5 -1 -9 -9 -9 -8 0 -12 4 -10 8 3 4 -2 9 -10 13 -8 3
-17 0 -21 -6 -5 -7 -2 -8 6 -3 9 5 11 4 6 -4 -6 -9 -11 -9 -21 -1 -10 8 -14 7
-18 -2 -3 -8 -6 -5 -7 7 l-1 20 -9 -20 c-5 -11 -9 -14 -9 -7 -1 18 -28 15 -41
-5 -11 -17 -11 -17 -6 -1 3 10 0 20 -6 24 -7 5 -8 2 -3 -6 5 -9 2 -10 -13 -6
-11 4 -23 2 -27 -4 -3 -5 -11 -10 -16 -10 -6 0 -7 5 -4 10 3 6 1 10 -4 10 -6
0 -11 -6 -11 -12 0 -9 -4 -8 -10 2 -6 10 -10 11 -10 3 0 -7 -5 -13 -11 -13 -5
0 -7 5 -3 12 5 7 3 8 -7 2 -8 -5 -25 -10 -38 -12 -22 -3 -23 -2 -10 15 12 16
12 17 -2 6 -9 -7 -20 -9 -24 -5 -5 4 -5 1 -1 -5 8 -14 -3 -16 -102 -14 -35 0
-67 3 -72 6 -5 3 -11 1 -15 -5 -4 -7 -13 -6 -27 1 -13 7 -18 7 -14 1 3 -6 2
-13 -4 -17 -5 -3 -10 0 -10 7 0 9 -3 9 -10 -2 -8 -12 -10 -12 -10 -1 0 11 -3
11 -17 0 -11 -10 -14 -10 -9 -1 8 13 -6 17 -18 5 -10 -11 -36 -12 -36 -2 0 5
-5 9 -11 9 -5 0 -8 -4 -4 -9 3 -5 1 -13 -5 -16 -6 -4 -9 -1 -8 5 2 7 -5 14
-14 15 -10 2 -18 -1 -18 -6 0 -5 -5 -9 -11 -9 -5 0 -7 6 -4 13 4 6 -2 2 -13
-10 -17 -19 -21 -20 -26 -7 -3 8 -2 12 4 9 6 -3 10 -1 10 4 0 14 -13 14 -28
-1 -9 -9 -12 -9 -12 1 0 11 -3 11 -16 0 -13 -10 -17 -10 -25 2 -6 10 -9 10 -9
2 0 -7 -9 -13 -21 -13 -11 0 -17 5 -14 10 3 6 1 10 -4 10 -6 0 -11 -8 -11 -17
0 -13 -3 -14 -12 -5 -18 18 -28 15 -21 -5 6 -17 6 -17 -11 0 -15 15 -21 16
-34 5 -9 -7 -13 -8 -9 -2 3 6 0 11 -8 11 -8 0 -11 -5 -8 -10 3 -5 0 -7 -8 -5
-8 3 -13 10 -12 16 3 14 -30 8 -35 -6 -2 -7 1 -12 8 -12 6 0 8 5 4 12 -4 7 -3
8 5 4 6 -4 9 -12 6 -17 -7 -10 -41 -7 -52 6 -5 4 -1 5 7 0 8 -5 12 -4 7 0 -4
5 -17 9 -28 10 -14 1 -18 -3 -14 -14 4 -14 3 -13 -8 1 -12 15 -14 15 -25 0 -7
-9 -10 -11 -7 -4 8 15 -7 16 -23 0 -6 -6 -15 -8 -19 -4 -4 4 -1 11 7 16 9 6
10 10 3 10 -7 0 -17 -8 -22 -17 -8 -14 -10 -15 -11 -3 0 13 -1 13 -10 0 -5 -8
-10 -10 -10 -4 0 7 -7 14 -15 18 -13 5 -14 2 -4 -17 12 -21 11 -21 -8 -4 -11
9 -24 17 -29 17 -5 0 -2 -5 6 -10 11 -8 9 -9 -12 -8 -16 1 -28 7 -28 13 0 5
-5 3 -10 -5 -9 -13 -10 -13 -10 0 0 12 -2 13 -9 1 -11 -16 -34 -5 -24 12 4 7
0 7 -10 -1 -9 -8 -21 -11 -27 -7 -6 4 -20 -1 -30 -10 -14 -12 -20 -13 -26 -4
-5 8 -3 10 6 4 9 -6 11 -4 5 5 -6 10 -11 9 -22 -5 -13 -18 -13 -18 -13 1 0 10
-4 15 -8 9 -4 -5 -16 -15 -28 -22 -16 -9 -21 -8 -21 3 0 7 5 10 10 7 6 -4 7
-1 2 6 -5 9 -10 10 -18 2 -6 -6 -23 -11 -38 -11 -15 0 -29 -3 -32 -7 -2 -5 -2
-3 -1 4 4 16 -13 26 -21 13 -5 -8 -11 -7 -21 1 -12 10 -14 10 -12 0 2 -8 -9
-14 -29 -16 -18 -1 -30 1 -28 5 3 5 0 12 -6 16 -8 4 -9 3 -5 -4 4 -8 0 -12
-11 -12 -11 0 -25 -6 -32 -12 -11 -10 -13 -10 -7 0 8 13 -6 17 -18 5 -9 -9
-66 -11 -66 -3 0 4 -7 7 -15 7 -8 0 -15 -3 -15 -7 0 -4 -7 -7 -15 -7 -8 0 -15
3 -15 6 0 3 -15 6 -34 6 -25 0 -32 -3 -25 -12 7 -8 5 -10 -10 -6 -12 3 -18 9
-15 14 3 5 -2 6 -10 3 -9 -3 -14 -9 -11 -13 5 -9 -32 -7 -41 2 -4 3 -16 2 -27
-4 -12 -7 -17 -7 -13 -1 3 5 -1 13 -10 16 -8 3 -13 2 -10 -3 8 -13 -18 -21
-35 -11 -8 5 -19 4 -28 -3 -10 -8 -13 -8 -8 -1 4 7 0 14 -8 17 -9 4 -12 1 -8
-9 3 -7 1 -14 -5 -14 -6 0 -13 6 -15 13 -3 6 -6 3 -7 -8 -1 -18 -2 -18 -16 5
-8 14 -13 18 -11 9 4 -12 -1 -14 -24 -11 -20 3 -29 0 -29 -9 -1 -9 -4 -8 -11
4 -9 16 -12 16 -31 3 -19 -14 -23 -13 -33 1 -10 13 -14 13 -20 3 -6 -9 -4 -11
6 -5 11 6 12 5 2 -5 -9 -10 -16 -10 -26 -2 -10 9 -17 8 -27 -1 -7 -6 -10 -7
-7 -1 3 6 -1 11 -9 11 -8 0 -13 -6 -10 -13 3 -8 0 -11 -10 -7 -7 3 -14 10 -14
16 0 6 -7 2 -15 -9 -8 -10 -14 -14 -13 -9 2 6 -2 10 -7 10 -5 0 -9 -3 -8 -6 1
-3 -11 -3 -28 -1 -16 2 -29 7 -29 11 0 4 -9 7 -19 7 -11 0 -17 -4 -15 -8 7
-11 -20 -10 -32 2 -6 6 -15 5 -24 -1 -12 -9 -11 -10 5 -4 16 5 17 4 8 -6 -10
-10 -15 -9 -28 1 -12 10 -15 10 -15 -1 0 -8 -6 -5 -15 7 -11 14 -14 15 -9 3 3
-10 0 -20 -7 -25 -7 -4 -10 -3 -5 4 3 6 2 13 -4 17 -5 3 -10 1 -10 -5 0 -8 -6
-7 -21 1 -15 8 -19 8 -15 0 9 -13 9 -13 -31 -2 -22 7 -35 6 -39 -1 -4 -7 -2
-8 4 -4 7 4 12 3 12 -3 0 -5 -9 -9 -19 -8 -11 0 -17 5 -15 9 3 4 1 8 -5 8 -5
0 -12 -6 -14 -12 -4 -10 -6 -9 -6 1 -1 10 -4 11 -15 2 -10 -9 -16 -9 -21 -1
-5 8 -11 7 -23 -2 -13 -11 -14 -11 -7 1 6 10 4 12 -5 6 -20 -12 -90 -16 -90
-5 0 6 -5 10 -11 10 -5 0 -7 -5 -3 -12 5 -8 2 -9 -9 -5 -10 4 -21 -1 -27 -11
-11 -16 -11 -16 -6 0 7 23 -14 28 -44 9 -13 -9 -21 -11 -17 -5 9 16 -105 6
-116 -9 -6 -8 -7 -6 -3 6 3 9 1 17 -4 17 -6 0 -10 -5 -10 -11 0 -5 -5 -7 -11
-4 -20 13 -59 12 -59 -1 0 -7 -4 -16 -10 -19 -5 -3 -7 0 -4 8 8 22 -12 29 -30
11 -9 -8 -16 -11 -16 -6 0 5 -9 12 -21 15 -15 4 -18 2 -10 -7 7 -8 5 -12 -9
-12 -10 0 -16 5 -13 11 4 5 -3 2 -14 -8 -20 -18 -22 -18 -31 -1 -9 15 -13 16
-26 5 -13 -11 -19 -11 -33 0 -14 12 -16 12 -11 -1 4 -11 0 -16 -13 -16 -11 0
-15 4 -9 11 5 6 -3 10 -25 10 -18 0 -31 -3 -28 -7 7 -13 -12 -9 -26 5 -11 10
-13 10 -7 0 4 -8 1 -13 -8 -13 -9 0 -16 5 -16 11 0 6 -7 3 -16 -6 -12 -12 -19
-13 -30 -4 -11 9 -14 9 -14 0 0 -7 -5 -9 -10 -6 -6 4 -8 12 -4 18 3 7 -2 3
-10 -7 -15 -18 -20 -15 -17 9 1 6 -4 3 -11 -6 -14 -17 -42 -14 -32 3 4 7 2 8
-4 4 -7 -4 -12 -15 -12 -24 0 -11 -3 -13 -8 -6 -10 15 -61 24 -69 11 -3 -5 -1
-7 5 -3 6 3 13 2 16 -3 7 -10 -20 -9 -30 2 -4 4 -14 1 -22 -6 -13 -9 -14 -9
-8 1 4 6 2 12 -3 12 -6 0 -11 -5 -11 -12 0 -6 -9 -1 -20 12 -11 13 -20 19 -20
14 0 -6 5 -15 10 -20 7 -7 6 -11 -5 -11 -8 0 -15 5 -15 11 0 6 -4 6 -11 -1 -7
-7 -20 -8 -34 -3 -12 4 -28 5 -35 0 -7 -4 -20 -6 -28 -2 -9 3 -13 1 -9 -5 5
-7 0 -9 -13 -6 -11 3 -18 8 -16 12 3 4 -6 7 -19 7 -13 0 -21 -4 -19 -8 3 -5
10 -5 16 -2 6 4 8 3 5 -3 -3 -5 -20 -8 -36 -5 -17 2 -29 7 -26 11 5 9 -32 7
-41 -2 -4 -4 -13 -2 -20 4 -8 7 -14 7 -19 -1 -3 -5 -15 -10 -26 -10 -11 0 -17
5 -14 10 3 6 1 10 -4 10 -6 0 -11 -6 -11 -14 0 -8 -5 -18 -10 -21 -6 -4 -9 -1
-8 6 2 7 -9 13 -24 14 -15 1 -25 -2 -22 -7 3 -4 10 -5 16 -2 7 4 8 2 4 -4 -5
-9 -13 -9 -26 -2 -23 12 -33 13 -26 2 3 -5 -5 -7 -17 -6 -12 1 -26 3 -30 3 -5
1 -6 5 -3 9 3 5 -1 9 -8 9 -8 0 -12 -6 -9 -13 4 -12 -12 -14 -32 -3 -13 8 -56
4 -79 -6 -12 -5 -21 -3 -27 6 -7 12 -9 12 -9 -1 0 -13 -1 -13 -10 0 -8 13 -14
8 -12 -10 0 -5 -20 -5 -61 -1 -5 1 -5 6 -1 13 5 7 3 8 -7 2 -20 -12 -39 -14
-39 -3 0 6 -5 7 -10 4 -8 -5 -7 -12 2 -23 12 -15 11 -16 -4 -4 -10 8 -23 12
-30 9 -7 -2 -22 3 -32 12 -12 10 -17 11 -11 2 6 -10 -2 -12 -39 -10 -25 2 -46
0 -46 -4 0 -5 -5 -5 -10 -2 -6 4 -7 11 -4 17 4 7 2 8 -5 4 -6 -4 -9 -11 -6
-16 3 -4 -2 -11 -11 -14 -8 -3 -12 -2 -9 4 9 14 -8 12 -24 -2 -9 -8 -11 -8 -8
-2 4 7 0 15 -9 18 -8 3 -13 2 -10 -3 7 -11 -14 -20 -32 -14 -6 3 -9 10 -6 15
5 7 2 8 -5 4 -7 -5 -10 -15 -7 -23 4 -9 2 -11 -7 -6 -19 12 -60 15 -53 4 4 -5
1 -13 -5 -17 -7 -4 -10 -3 -6 2 3 5 -6 14 -19 21 -15 7 -22 7 -18 1 4 -6 1 -8
-7 -6 -8 3 -23 1 -34 -5 -18 -9 -19 -9 -5 8 14 17 14 17 -6 7 -16 -8 -24 -8
-34 1 -9 8 -11 8 -7 1 5 -8 -10 -11 -48 -10 -39 1 -54 -2 -51 -11 3 -7 -1 -10
-9 -6 -8 3 -13 8 -10 13 2 4 -7 5 -21 2 -21 -4 -23 -7 -12 -21 10 -13 9 -13
-8 2 -24 20 -38 22 -28 5 5 -9 2 -9 -9 1 -12 10 -17 10 -17 2 0 -8 -6 -7 -16
3 -21 21 -30 20 -13 -1 8 -10 9 -14 2 -10 -6 4 -14 3 -18 -3 -4 -6 -12 -7 -18
-3 -29 18 -88 21 -118 7 -14 -7 -31 -9 -38 -5 -18 12 -62 1 -54 -13 4 -6 -1
-5 -10 3 -14 11 -20 11 -34 0 -11 -10 -14 -10 -9 -1 5 8 1 11 -13 9 -11 -2
-24 -6 -27 -10 -11 -11 -26 -8 -19 3 3 6 -1 7 -9 4 -9 -3 -14 -10 -11 -14 7
-11 -36 0 -54 14 -11 8 -13 8 -7 -1 4 -8 2 -13 -4 -13 -6 0 -8 -6 -4 -12 5
-10 4 -10 -6 -1 -11 10 -17 10 -29 0 -12 -10 -14 -9 -8 8 6 18 6 19 -6 3 -11
-14 -16 -15 -27 -5 -7 7 -10 7 -7 1 4 -7 -5 -11 -25 -12 -17 0 -35 -7 -39 -14
-7 -11 -9 -11 -9 0 0 7 -4 11 -10 7 -5 -3 -6 -13 -3 -23 6 -15 4 -15 -9 -4
-14 11 -16 10 -14 -5 2 -11 10 -17 22 -15 15 3 16 1 7 -9 -10 -10 -9 -15 5
-26 16 -12 16 -13 -2 -6 -13 4 -17 3 -12 -5 3 -6 1 -14 -5 -18 -8 -4 -9 -3 -5
4 5 8 2 10 -9 6 -14 -6 -14 -8 1 -19 12 -8 14 -14 6 -19 -7 -4 -12 -12 -12
-17 0 -6 5 -7 12 -3 7 5 8 3 3 -5 -5 -9 -10 -10 -18 -2 -7 7 -16 7 -29 0 -10
-5 -23 -7 -28 -4 -6 4 -7 -1 -3 -11 5 -13 3 -16 -9 -11 -12 4 -15 0 -13 -18 1
-14 -1 -22 -5 -20 -5 3 -10 -2 -14 -10 -3 -8 -12 -15 -20 -15 -10 0 -13 -6 -9
-17 4 -10 2 -14 -4 -10 -14 9 -31 -13 -28 -35 3 -15 0 -16 -18 -7 -18 9 -20 9
-10 -1 12 -13 7 -40 -9 -40 -5 0 -6 5 -2 12 5 7 3 8 -5 4 -7 -5 -10 -10 -7
-13 10 -10 -15 -44 -27 -36 -7 4 -6 0 2 -10 12 -15 12 -17 -4 -11 -15 6 -17 3
-13 -19 4 -23 3 -25 -13 -17 -15 8 -17 7 -14 -10 3 -15 -3 -24 -18 -30 -14 -5
-16 -9 -7 -10 9 -1 6 -5 -7 -10 -13 -6 -23 -18 -23 -30 0 -11 -6 -20 -14 -20
-10 0 -13 -7 -11 -21 4 -18 2 -19 -12 -7 -12 9 -15 9 -9 1 4 -8 2 -13 -4 -13
-7 0 -9 -7 -6 -16 4 -11 2 -15 -8 -11 -10 4 -13 -1 -12 -18 2 -17 -1 -22 -12
-17 -9 3 -13 1 -9 -5 4 -6 0 -14 -9 -17 -9 -4 -14 -13 -10 -21 3 -8 2 -14 -2
-14 -21 3 -31 -2 -26 -15 3 -7 -2 -16 -11 -20 -9 -3 -13 -11 -10 -16 4 -6 1
-9 -7 -8 -9 2 -12 -7 -11 -27 2 -22 0 -26 -7 -15 -8 13 -11 13 -22 1 -11 -12
-10 -13 2 -7 8 4 2 -5 -15 -19 -16 -15 -24 -24 -17 -21 6 4 12 2 12 -3 0 -6
-5 -11 -11 -11 -6 0 -8 -7 -5 -16 5 -13 4 -14 -7 -6 -14 12 -37 -2 -37 -22 0
-5 6 -2 13 8 12 16 13 16 13 -3 0 -11 -3 -18 -7 -15 -12 7 -40 -27 -32 -39 4
-7 -2 -5 -12 3 -17 14 -18 14 -6 -9 9 -16 9 -21 2 -16 -18 10 -39 -13 -37 -39
2 -18 -2 -23 -18 -22 -12 1 -20 -4 -18 -12 3 -17 -23 -43 -33 -34 -5 4 -5 1
-1 -6 4 -7 2 -19 -4 -27 -6 -8 -8 -20 -4 -27 6 -9 3 -9 -9 1 -15 12 -17 12
-11 -4 5 -12 4 -16 -3 -12 -6 4 -16 0 -23 -8 -11 -13 -10 -15 6 -9 18 5 18 5
2 -9 -10 -8 -18 -19 -18 -26 0 -6 -5 -11 -11 -11 -5 0 -7 -6 -3 -12 5 -8 0 -7
-11 2 -10 8 -16 10 -12 3 4 -6 1 -14 -5 -16 -10 -4 -10 -6 0 -6 20 -2 14 -21
-7 -21 -11 0 -23 -5 -27 -12 -4 -7 -3 -8 4 -4 7 4 12 2 12 -3 0 -6 -5 -11 -11
-11 -5 0 -7 -5 -3 -11 4 -8 0 -9 -15 -4 -13 4 -21 2 -21 -5 0 -6 4 -8 10 -5 5
3 10 1 10 -4 0 -6 -5 -11 -10 -11 -6 0 -9 -6 -8 -12 2 -7 -5 -12 -14 -12 -10
1 -15 -2 -12 -7 3 -5 -1 -9 -8 -9 -10 0 -10 -2 -1 -8 8 -5 4 -14 -12 -28 -13
-12 -27 -19 -30 -15 -4 3 -6 2 -5 -4 1 -5 2 -21 1 -35 -1 -20 -3 -22 -11 -10
-8 13 -10 12 -10 -3 0 -12 -4 -16 -12 -11 -9 5 -8 2 1 -9 12 -15 12 -17 -2
-12 -8 4 -18 1 -23 -6 -5 -8 -3 -10 7 -5 8 4 3 -2 -11 -14 -14 -12 -19 -19
-13 -15 7 3 13 1 13 -4 0 -6 -9 -11 -20 -11 -11 0 -20 -5 -20 -11 0 -5 5 -7
11 -3 6 3 3 -5 -6 -20 -10 -14 -22 -26 -27 -26 -5 0 -6 -4 -3 -10 3 -5 -1 -10
-9 -10 -8 0 -18 -5 -22 -12 -5 -7 -3 -8 6 -3 9 5 11 4 6 -3 -4 -7 -15 -12 -24
-13 -11 0 -12 -3 -4 -6 6 -2 12 -9 12 -14 0 -6 -4 -7 -10 -4 -9 6 -15 -8 -11
-29 1 -5 -5 -3 -14 4 -13 11 -15 10 -10 -3 4 -8 1 -18 -4 -22 -6 -3 -8 -12 -4
-18 4 -7 -1 -6 -10 2 -15 12 -17 12 -11 -4 6 -14 4 -16 -6 -10 -9 6 -11 4 -5
-4 8 -15 -29 -53 -41 -43 -5 4 -2 -1 5 -10 12 -16 11 -18 -4 -18 -10 0 -15 -3
-12 -7 4 -3 -1 -12 -11 -20 -11 -10 -12 -12 -2 -8 8 3 5 -2 -8 -11 -12 -9 -22
-22 -22 -30 0 -7 -9 -18 -20 -24 -11 -6 -20 -18 -20 -26 0 -8 -4 -12 -10 -9
-5 3 -10 -2 -10 -12 0 -10 -9 -26 -20 -36 -12 -10 -18 -23 -14 -29 5 -7 3 -8
-6 -3 -10 6 -12 2 -7 -15 4 -17 3 -20 -6 -11 -18 18 -31 13 -16 -6 12 -14 12
-16 0 -8 -11 6 -13 4 -8 -8 4 -12 1 -15 -16 -12 -20 4 -21 3 -4 -9 17 -13 16
-14 -3 -19 -12 -3 -20 -13 -20 -25 0 -12 -5 -24 -12 -28 -6 -4 -8 -3 -5 2 3 6
1 16 -4 24 -9 13 -10 13 -8 0 3 -28 -1 -41 -10 -36 -5 3 -8 -2 -7 -12 0 -10
-5 -16 -13 -14 -12 3 -12 0 -1 -13 11 -13 10 -15 -4 -9 -11 4 -16 1 -16 -14 0
-19 -25 -38 -43 -33 -5 1 -6 -3 -2 -9 3 -6 11 -7 17 -4 7 4 8 2 4 -4 -4 -7
-14 -12 -21 -12 -9 0 -12 -6 -8 -15 3 -10 1 -15 -7 -13 -7 2 -15 -3 -18 -11
-3 -9 0 -11 9 -6 8 5 11 4 6 -1 -5 -5 -13 -10 -18 -10 -5 -1 -12 -2 -15 -3 -4
0 -1 -7 5 -15 10 -12 8 -14 -11 -9 -18 4 -20 3 -8 -6 13 -9 12 -11 -3 -11 -10
0 -15 -4 -12 -10 3 -5 -1 -10 -9 -10 -8 0 -18 -5 -22 -12 -5 -8 -2 -9 11 -4
12 4 6 -5 -13 -24 -18 -16 -32 -35 -32 -41 0 -5 -6 -7 -12 -3 -9 5 -8 2 1 -9
12 -15 12 -17 -3 -11 -12 5 -19 0 -23 -14 -3 -11 -11 -23 -19 -26 -7 -3 -11
-14 -9 -26 2 -11 0 -18 -5 -15 -6 3 -18 1 -27 -4 -10 -6 -12 -11 -5 -11 22 0
13 -20 -10 -20 -19 0 -20 -2 -8 -10 10 -6 11 -10 3 -10 -7 0 -13 -7 -13 -16 0
-8 -4 -12 -10 -9 -6 3 -10 -4 -10 -17 0 -19 -2 -20 -11 -8 -9 12 -10 11 -6 -8
3 -12 1 -20 -4 -16 -5 3 -13 -6 -19 -20 -5 -14 -14 -26 -20 -26 -6 0 -9 -4 -6
-9 3 -5 -4 -11 -15 -14 -12 -3 -18 -10 -15 -16 4 -5 -6 -17 -21 -26 -27 -15
-27 -16 -3 -10 24 6 24 5 6 -9 -10 -9 -23 -13 -27 -10 -4 2 -6 -7 -3 -21 3
-16 0 -25 -8 -25 -9 0 -9 -3 -2 -8 6 -4 14 -16 17 -27 7 -20 7 -20 -8 -1 -17
22 -20 14 -5 -14 7 -13 7 -21 -2 -26 -6 -4 -8 -3 -4 4 3 6 1 14 -5 18 -8 4 -9
3 -5 -4 4 -7 1 -12 -6 -12 -7 -1 -2 -8 12 -16 l25 -15 -30 5 c-16 3 -24 3 -17
0 6 -3 9 -11 5 -17 -4 -7 0 -8 12 -3 15 5 16 4 5 -9 -10 -12 -10 -15 1 -15 8
0 6 -6 -7 -16 -15 -12 -15 -15 -2 -10 14 4 15 0 8 -26 -8 -26 -7 -29 8 -23 9
3 13 3 9 -1 -4 -4 -2 -13 5 -21 9 -11 7 -12 -8 -7 -11 3 -6 -4 11 -16 17 -12
23 -20 14 -17 -9 3 -16 -1 -16 -8 0 -8 3 -14 6 -13 25 2 40 -4 35 -15 -3 -8 3
-20 13 -28 16 -13 17 -12 4 4 -12 15 -12 17 3 11 9 -3 16 -14 16 -23 0 -14 2
-14 10 -1 8 13 10 13 10 -1 0 -10 15 -30 34 -47 19 -17 32 -33 28 -37 -4 -4 0
-5 8 -3 9 2 14 -3 12 -11 -3 -12 0 -12 12 -2 12 10 14 9 9 -11 -4 -18 -3 -20
6 -8 8 11 11 12 11 2 0 -8 5 -10 13 -6 7 5 7 2 -2 -10 -8 -9 -10 -16 -5 -15
21 4 30 -3 43 -32 7 -16 16 -28 19 -25 2 3 -1 12 -8 21 -7 8 -9 15 -4 15 5 0
18 -12 28 -27 11 -14 15 -23 9 -20 -5 3 -10 0 -10 -7 0 -8 8 -11 19 -8 10 2
18 -1 18 -7 0 -7 5 -9 10 -6 5 3 10 -3 10 -13 0 -11 8 -26 17 -33 11 -9 14
-10 9 -2 -5 9 -2 11 8 7 9 -3 13 -10 10 -15 -3 -5 0 -9 6 -9 6 0 8 -5 4 -12
-5 -8 -2 -9 9 -5 11 4 17 1 17 -8 0 -8 5 -15 12 -15 6 0 8 -3 5 -7 -4 -3 -2
-12 4 -20 9 -10 15 -11 26 -1 11 9 13 8 11 -3 -2 -8 3 -13 11 -11 11 2 12 0 3
-11 -15 -18 -4 -29 18 -17 14 8 17 5 15 -15 -2 -18 1 -22 13 -18 10 4 13 2 8
-5 -6 -11 11 -17 36 -13 3 0 5 -11 3 -24 -1 -13 2 -22 7 -19 5 3 15 0 23 -6
12 -10 15 -10 15 0 0 8 3 10 6 7 4 -4 2 -13 -4 -20 -14 -16 -6 -28 14 -20 9 3
14 -1 14 -12 0 -11 5 -15 16 -11 8 3 13 2 10 -2 -3 -5 4 -14 14 -22 10 -8 17
-17 14 -22 -4 -7 16 -12 37 -10 4 1 9 -13 13 -30 5 -26 8 -29 22 -18 8 8 14 9
13 4 -4 -21 2 -34 15 -34 14 0 32 -36 28 -53 -1 -5 2 -6 8 -2 6 3 8 10 5 15
-3 5 -1 12 5 15 6 4 10 3 9 -2 -4 -21 3 -31 21 -36 11 -3 19 -11 18 -19 -2 -7
5 -12 15 -12 14 2 15 -1 6 -12 -8 -10 -7 -12 10 -9 14 2 18 -1 14 -11 -3 -8 0
-14 7 -14 6 0 8 -5 4 -11 -4 -8 1 -9 17 -4 22 7 23 7 9 -10 -8 -11 -10 -16 -4
-12 11 7 29 -19 25 -36 -1 -5 3 -6 9 -2 8 5 7 11 -1 21 -8 10 -8 14 0 14 6 0
13 -11 17 -24 4 -17 11 -23 22 -19 10 4 13 2 8 -5 -4 -7 -3 -12 3 -12 5 0 13
-9 16 -20 3 -11 15 -20 25 -20 20 0 44 -32 33 -43 -3 -4 4 -4 17 -2 19 4 20 2
8 -12 -7 -10 -8 -14 -1 -10 6 4 14 1 16 -5 4 -10 7 -10 15 0 7 11 10 11 15 -3
4 -9 3 -13 -3 -10 -6 3 -10 1 -10 -4 0 -6 6 -11 14 -11 8 0 18 -5 22 -12 4 -7
3 -8 -4 -4 -8 4 -10 2 -6 -8 3 -8 12 -12 19 -10 7 3 19 -4 27 -15 8 -12 19
-18 24 -13 4 4 2 -2 -6 -12 -10 -13 -10 -17 -2 -12 7 4 12 2 12 -5 0 -8 4 -8
16 1 8 8 14 9 12 4 -4 -16 22 -54 37 -54 8 0 15 -7 15 -16 0 -11 6 -14 23 -9
12 3 18 3 12 -2 -13 -10 -16 -43 -4 -43 5 0 9 8 9 18 1 16 1 16 11 -1 5 -9 7
-22 4 -27 -3 -6 1 -7 9 -4 9 3 16 1 16 -6 0 -6 5 -8 12 -4 6 4 9 3 5 -2 -3 -5
1 -18 9 -29 9 -12 14 -14 14 -5 0 18 11 6 14 -16 1 -9 22 -27 47 -39 24 -13
43 -26 42 -29 -6 -12 -3 -26 5 -25 4 1 14 1 22 0 13 -1 13 -2 0 -11 -12 -8
-11 -10 6 -10 25 0 69 -46 51 -54 -7 -2 -2 -5 11 -5 13 -1 20 -5 17 -11 -6 -9
8 -15 29 -11 5 1 6 -5 3 -13 -4 -9 1 -17 14 -21 10 -4 19 -11 19 -16 0 -6 5
-7 12 -3 8 5 9 2 5 -9 -6 -16 4 -22 28 -17 6 1 7 -2 3 -6 -11 -10 32 -45 46
-37 6 3 5 0 -1 -8 -16 -16 -17 -29 -2 -29 5 0 7 5 4 10 -3 6 -2 10 4 10 5 0
13 -9 16 -20 3 -11 15 -20 25 -20 10 0 21 -7 24 -16 6 -15 4 -15 -11 -3 -16
13 -17 12 -4 -4 7 -9 21 -16 30 -15 8 2 16 -4 16 -12 0 -8 8 -14 17 -14 11 1
15 -5 13 -17 -3 -13 2 -19 13 -19 9 0 25 -14 35 -31 12 -21 22 -29 33 -25 12
5 15 2 12 -12 -4 -15 -1 -18 18 -14 19 3 23 0 19 -16 -3 -15 4 -23 26 -31 31
-11 42 -24 12 -15 -15 5 -16 4 -3 -5 8 -6 22 -11 31 -11 9 0 20 -7 23 -16 6
-15 4 -15 -11 -3 -16 13 -17 12 -4 -3 7 -10 20 -18 28 -18 9 0 13 -6 10 -14
-4 -10 -1 -13 9 -9 12 5 19 -7 15 -30 -1 -4 8 -3 19 3 16 9 19 8 13 -6 -4 -12
-3 -15 5 -10 7 4 12 1 12 -8 0 -8 9 -18 20 -21 11 -3 20 -11 20 -16 0 -6 6 -7
13 -3 8 6 8 3 -1 -9 -12 -14 -11 -16 7 -12 14 2 18 -1 14 -11 -3 -8 1 -14 11
-14 9 0 16 -6 16 -14 0 -21 21 -31 31 -15 7 11 9 11 9 -3 0 -9 -6 -19 -12 -22
-7 -3 -4 -4 7 -3 12 1 19 -3 17 -12 -2 -8 3 -11 13 -8 9 4 15 1 15 -9 0 -10 6
-14 14 -11 8 3 20 -1 26 -9 7 -8 9 -14 4 -14 -4 0 0 -6 11 -13 11 -9 15 -19
11 -28 -4 -8 0 -5 9 6 17 20 17 20 10 -3 -3 -12 -2 -21 2 -20 5 2 22 -10 37
-27 15 -16 25 -23 21 -15 -4 10 -2 9 8 -2 8 -10 17 -15 20 -12 8 9 3 -19 -8
-36 -5 -9 0 -8 13 4 22 19 22 19 22 -4 0 -13 3 -21 6 -17 8 7 34 -17 34 -32 0
-5 9 -13 20 -16 11 -3 20 -10 20 -15 0 -4 9 -10 20 -13 11 -3 20 -13 20 -24 0
-15 2 -16 11 -3 9 12 10 11 6 -6 -4 -18 0 -22 19 -19 18 2 22 -1 14 -10 -13
-15 7 -34 32 -30 11 2 15 -2 11 -11 -3 -8 1 -14 11 -14 9 0 16 -7 16 -16 0 -8
5 -12 10 -9 6 3 10 -1 10 -9 0 -9 5 -16 10 -16 6 0 15 -10 20 -22 8 -21 9 -21
9 -3 1 16 5 14 21 -12 11 -18 27 -33 35 -33 10 0 13 -5 9 -12 -5 -7 -2 -9 8
-6 8 4 22 -2 31 -13 9 -10 13 -19 7 -19 -5 0 -14 8 -19 18 -10 16 -10 16 -11
-1 0 -12 10 -20 31 -24 22 -4 27 -8 17 -14 -10 -7 -10 -9 2 -10 8 -1 18 -1 22
0 4 0 10 -8 13 -19 4 -11 13 -20 21 -20 8 0 14 -7 14 -15 0 -9 6 -12 18 -9 14
5 14 3 -3 -11 -20 -17 -20 -17 4 -10 13 4 21 3 19 -1 -3 -5 4 -18 15 -29 11
-11 17 -14 13 -7 -4 6 -2 12 3 12 6 0 11 -9 11 -20 0 -13 7 -20 20 -20 12 0
20 -7 20 -16 0 -11 6 -15 20 -11 16 4 18 2 10 -13 -7 -13 -6 -21 2 -26 7 -4 8
-3 4 4 -4 7 -3 12 3 12 5 0 13 -5 16 -10 4 -6 11 -7 17 -4 6 4 5 -2 -1 -15 -7
-12 -8 -21 -4 -20 20 3 34 -2 28 -10 -3 -5 0 -13 6 -17 8 -4 9 -3 5 4 -4 7 -2
12 5 12 7 0 9 -8 6 -21 -4 -16 -3 -18 9 -8 11 9 14 8 14 -5 0 -10 4 -14 10
-11 6 3 10 -1 10 -9 0 -8 5 -18 12 -22 8 -5 9 -2 5 10 -4 10 -3 15 3 11 6 -3
10 -15 10 -26 0 -17 11 -24 33 -20 5 1 6 -2 4 -6 -2 -5 7 -19 21 -33 14 -14
20 -18 13 -8 -8 11 -9 18 -1 23 6 4 10 3 9 -2 -2 -16 13 -53 23 -53 5 0 6 -6
2 -12 -5 -9 -2 -9 9 1 15 11 17 11 17 -2 0 -8 7 -18 16 -21 8 -3 13 -10 10
-15 -4 -5 7 -15 24 -23 16 -7 30 -19 30 -27 0 -8 3 -12 6 -8 8 7 34 -17 34
-32 0 -5 5 -13 12 -17 7 -4 8 -3 4 4 -5 8 -2 10 8 6 9 -3 14 -9 12 -13 -2 -3
2 -15 10 -26 10 -13 14 -15 14 -4 1 8 6 5 13 -9 7 -12 16 -19 20 -16 4 4 7 2
7 -3 0 -6 -6 -14 -12 -17 -7 -3 -5 -4 4 -3 9 1 24 -7 32 -18 l16 -20 -5 20
c-5 16 -3 16 6 -2 7 -13 16 -23 21 -23 5 0 6 -6 2 -12 -6 -9 -3 -9 9 0 14 12
16 11 12 -8 -3 -17 -1 -20 9 -11 11 9 14 8 12 -6 0 -10 5 -17 12 -15 6 1 12
-5 12 -13 0 -8 5 -15 11 -15 5 0 7 -6 3 -12 -5 -8 0 -7 11 2 17 14 18 13 12
-4 -6 -14 -4 -17 8 -12 9 3 13 2 10 -4 -3 -6 1 -10 10 -10 9 0 14 -4 10 -9 -3
-5 4 -12 15 -16 11 -3 20 -11 20 -16 0 -6 -5 -7 -12 -3 -7 4 -8 3 -4 -5 6 -9
11 -9 22 0 12 10 15 10 12 -2 -2 -8 2 -13 8 -12 5 1 16 -8 23 -20 11 -18 11
-20 0 -9 -7 6 -18 12 -23 12 -6 0 0 -7 12 -16 13 -9 30 -13 38 -10 9 3 12 1 9
-4 -3 -6 -1 -10 4 -10 6 0 10 -5 9 -12 -2 -7 4 -12 12 -13 8 0 19 -10 25 -23
5 -12 18 -25 27 -28 10 -3 18 -11 18 -19 0 -8 9 -17 20 -20 11 -3 20 -13 20
-20 0 -8 8 -12 19 -10 15 3 20 -4 26 -32 6 -33 7 -34 21 -17 8 11 13 14 12 8
-2 -7 1 -12 5 -12 5 -1 21 -17 36 -36 16 -20 32 -32 36 -28 5 4 5 -1 2 -11 -5
-14 -2 -20 13 -24 18 -5 24 -15 21 -36 -1 -4 8 -3 20 4 15 8 19 8 15 0 -4 -6
-2 -11 5 -11 7 0 9 -8 6 -21 -4 -16 -3 -18 9 -8 11 9 14 9 14 0 0 -15 26 -42
33 -35 3 3 8 -4 12 -15 3 -12 13 -21 21 -21 8 0 14 -4 14 -10 0 -5 7 -10 15
-10 8 0 15 -7 15 -16 0 -8 4 -13 9 -9 5 3 12 -4 16 -15 3 -11 13 -20 22 -20
10 0 13 -6 9 -16 -3 -8 -2 -13 3 -9 5 3 16 -1 24 -9 8 -8 17 -13 20 -10 3 3 8
-4 12 -15 3 -12 19 -28 35 -36 16 -8 32 -21 36 -27 6 -10 4 -10 -8 0 -13 10
-18 10 -24 1 -4 -7 -3 -9 4 -5 6 3 13 2 17 -4 3 -5 15 -10 27 -10 11 0 22 -8
25 -20 3 -11 10 -20 15 -20 5 0 6 -6 2 -12 -5 -8 -2 -8 10 1 9 8 16 10 15 5
-4 -21 2 -35 11 -29 6 3 10 1 10 -5 0 -6 5 -8 13 -4 7 5 6 0 -3 -11 -9 -11
-10 -16 -2 -11 7 4 12 2 12 -6 0 -9 3 -9 10 2 8 13 10 12 10 -3 0 -12 4 -16
13 -11 8 5 7 2 -2 -9 -12 -15 -12 -17 2 -11 12 4 20 -2 27 -21 6 -15 19 -29
30 -32 11 -3 17 -10 13 -17 -4 -6 1 -5 10 3 15 12 17 12 10 -4 -5 -14 -3 -17
10 -12 12 4 14 2 10 -10 -4 -11 -2 -14 5 -9 7 4 12 1 12 -7 0 -8 7 -18 16 -21
8 -3 13 -10 10 -14 -2 -4 7 -8 21 -8 15 1 28 -5 30 -14 3 -9 1 -11 -4 -5 -4 6
-15 11 -23 13 -12 2 -11 -1 2 -11 10 -8 15 -17 11 -21 -4 -4 1 -4 11 0 13 5
17 4 12 -4 -4 -8 -2 -10 7 -6 8 3 18 0 23 -7 4 -8 3 -10 -4 -5 -8 5 -10 2 -6
-8 5 -13 10 -13 27 -4 20 10 21 10 8 -6 -12 -15 -12 -17 0 -14 8 2 13 -4 13
-14 -1 -10 2 -15 7 -12 5 3 9 1 9 -5 0 -6 7 -8 15 -4 9 3 15 2 14 -3 -3 -20 2
-34 12 -34 5 0 7 6 3 13 -5 8 -2 8 9 -2 9 -7 17 -20 17 -28 0 -8 5 -11 10 -8
9 6 14 -8 11 -27 0 -5 6 -8 15 -8 9 0 12 5 8 13 -5 9 -3 9 7 -1 12 -11 12 -14
-1 -22 -13 -8 -12 -10 3 -10 10 0 25 -7 34 -15 8 -8 18 -13 22 -11 4 3 8 -1 8
-9 0 -12 -3 -12 -16 -2 -14 11 -14 10 -2 -6 8 -10 20 -16 28 -13 8 3 11 1 8
-4 -3 -6 1 -13 9 -16 9 -3 14 -10 11 -15 -3 -4 3 -6 14 -4 12 2 18 -1 16 -8
-8 -19 9 -37 38 -39 19 -2 23 -6 16 -14 -7 -8 -6 -15 2 -20 8 -5 10 -3 4 7 -4
8 1 5 12 -6 11 -11 19 -22 17 -24 -8 -9 18 -29 32 -24 8 3 14 -1 14 -10 0 -8
8 -21 18 -28 15 -13 16 -12 3 4 -12 15 -12 17 3 11 13 -5 16 -14 11 -33 -4
-21 -3 -23 5 -11 9 11 13 12 17 2 2 -6 10 -9 16 -5 7 4 8 0 4 -11 -5 -14 -3
-17 8 -12 8 3 15 1 15 -4 0 -6 0 -13 1 -17 1 -12 43 -32 52 -26 5 3 4 -5 -3
-17 -7 -12 -7 -20 -2 -16 6 3 12 3 15 -1 2 -5 2 -1 0 7 -2 10 2 9 12 -4 8 -10
12 -23 9 -27 -3 -5 6 -11 19 -15 19 -4 23 -10 19 -27 -5 -19 -3 -20 10 -9 14
11 16 11 12 -5 -3 -12 3 -21 18 -28 13 -5 27 -20 33 -32 5 -13 16 -23 23 -23
8 0 10 -5 6 -12 -5 -8 0 -7 11 2 17 14 17 13 11 -8 -4 -12 -4 -22 1 -21 21 4
43 -2 43 -11 0 -5 -8 -7 -17 -4 -10 4 -6 -3 10 -13 15 -11 24 -23 20 -26 -3
-4 1 -7 11 -7 10 0 14 5 10 12 -4 6 -3 8 4 5 5 -4 9 -18 8 -32 -2 -13 0 -22 5
-20 4 3 15 -2 23 -11 9 -8 16 -11 16 -5 0 5 -8 15 -17 20 -10 6 -13 11 -7 11
6 0 17 -7 24 -15 7 -8 17 -12 22 -9 5 3 12 -3 15 -15 3 -12 12 -21 20 -21 9 0
11 -5 7 -12 -5 -8 0 -7 11 2 10 8 16 10 12 4 -4 -7 0 -15 9 -18 23 -9 26 -8
18 7 -4 6 5 1 19 -12 25 -23 27 -23 28 -5 0 17 2 17 11 -4 6 -12 15 -22 20
-22 5 0 6 6 2 13 -5 8 -2 8 9 -2 12 -9 17 -10 17 -2 0 7 5 9 10 6 6 -4 7 -12
4 -18 -4 -7 6 -1 21 13 l29 25 -19 -30 c-17 -27 -17 -28 -1 -16 15 13 19 13
28 0 7 -11 9 -8 5 9 -4 17 -2 21 6 14 7 -5 27 -12 45 -14 24 -3 32 -1 32 11 1
14 2 14 10 -1 8 -13 17 -15 40 -8 17 5 30 6 30 3 0 -3 6 0 14 6 11 10 17 8 26
-6 11 -17 11 -17 6 1 -5 13 -2 17 9 12 8 -3 15 -1 15 5 0 6 5 7 10 4 6 -3 10
-1 10 6 0 6 8 9 19 6 15 -4 18 -1 13 12 -5 14 -4 14 13 1 11 -9 16 -10 11 -3
-6 12 18 19 47 14 5 -1 6 3 2 9 -3 6 -11 7 -17 4 -7 -4 -8 -2 -4 4 4 6 14 8
23 5 13 -5 15 -2 10 12 -6 15 -5 16 8 5 11 -9 15 -9 15 -1 0 7 4 10 9 7 12 -8
34 21 26 34 -4 7 0 10 11 8 14 -2 19 3 18 20 -1 19 1 20 14 10 12 -10 14 -10
8 0 -4 6 -2 12 3 12 6 0 11 6 11 14 0 7 10 16 22 19 19 5 20 8 7 24 -7 10 -9
15 -5 11 5 -5 16 1 23 12 8 11 18 18 23 15 5 -3 7 4 5 16 -3 17 -1 19 10 9 10
-8 15 -8 21 1 5 8 3 10 -7 5 -8 -4 -5 0 5 8 11 9 16 16 10 16 -5 0 3 11 18 24
15 12 24 27 20 32 -4 4 0 3 10 -4 12 -10 18 -10 24 -1 4 8 3 9 -4 5 -7 -4 -12
-2 -12 3 0 6 7 11 15 11 8 0 15 7 15 15 0 8 5 15 11 15 6 0 8 7 5 16 -6 14 -4
15 9 4 9 -7 15 -9 14 -4 -4 24 2 33 19 27 14 -6 15 -4 4 9 -14 17 -4 30 26 34
18 3 29 14 14 14 -7 0 -12 5 -12 10 0 7 6 7 18 1 14 -7 19 -6 20 5 1 7 3 21 4
29 1 8 7 16 14 19 9 3 11 -1 7 -12 -4 -13 -2 -12 10 3 8 11 13 24 9 29 -3 5 2
6 13 2 15 -5 16 -4 5 9 -8 10 -9 15 -2 13 6 -2 18 6 27 17 9 11 14 15 11 9 -3
-6 1 -11 9 -11 11 0 12 3 3 14 -9 11 -6 17 11 29 12 9 20 22 17 29 -3 9 3 12
19 11 15 -2 22 1 18 9 -2 7 1 16 6 20 6 3 8 12 4 18 -4 7 1 6 11 -2 9 -8 16
-10 15 -5 -4 21 2 32 21 37 11 3 20 13 20 22 0 9 5 13 10 10 9 -6 14 7 11 27
0 4 6 5 14 2 14 -6 21 12 16 39 -1 5 3 6 9 2 17 -10 33 5 20 20 -8 9 -5 12 14
10 17 -2 23 1 20 10 -3 7 4 15 15 18 14 3 19 11 16 26 -2 11 -1 20 3 19 16 -5
63 36 57 50 -5 13 -3 13 12 1 11 -9 14 -10 9 -2 -4 8 3 22 18 37 14 13 26 30
26 37 0 11 2 11 10 -1 8 -13 10 -13 10 2 0 10 12 24 28 32 15 8 26 17 25 20
-9 20 -1 27 14 15 15 -13 15 -12 3 11 -13 24 -12 24 5 10 17 -14 17 -14 7 7
-10 18 -9 20 7 16 10 -3 22 1 26 8 6 8 4 10 -6 5 -8 -4 -5 -1 5 8 10 8 24 12
30 9 6 -4 5 0 -2 9 -10 13 -10 18 -1 24 8 5 9 3 4 -6 -5 -9 -4 -11 3 -6 7 4
12 13 12 20 0 8 7 20 17 27 15 13 15 12 5 -8 -7 -12 -12 -25 -12 -30 1 -4 8 4
16 20 8 15 12 32 9 37 -3 5 3 7 14 5 15 -3 18 0 14 12 -5 13 -2 15 16 10 18
-4 20 -3 10 9 -9 11 -9 14 0 14 7 0 9 4 6 10 -4 6 1 7 11 3 14 -5 16 -2 11 16
-4 18 -3 20 9 10 11 -9 14 -9 14 0 0 7 5 9 12 5 7 -4 8 -3 4 5 -4 6 -12 8 -18
5 -7 -4 -8 -2 -4 4 4 7 14 12 22 12 9 0 12 5 8 12 -5 8 -2 9 10 5 13 -5 19 -1
23 13 3 11 10 17 17 13 6 -4 5 0 -2 9 -10 13 -10 18 -1 24 8 4 9 3 5 -4 -10
-17 6 -14 29 5 l20 16 -20 -7 -20 -6 20 16 c11 8 19 19 18 23 -1 4 12 16 28
26 16 11 27 26 24 33 -3 7 0 10 5 7 6 -4 17 1 26 9 9 9 20 14 25 11 5 -4 9 -1
9 4 0 6 -4 11 -8 11 -5 0 -9 7 -9 15 0 9 4 11 11 6 7 -6 19 -3 31 6 17 13 17
15 2 10 -15 -6 -16 -4 -7 13 6 11 16 17 25 14 10 -4 15 0 15 11 0 9 5 13 10
10 6 -3 10 4 10 15 0 15 5 20 15 17 8 -4 17 -1 21 5 5 7 2 8 -7 4 -8 -4 -5 -1
5 8 10 8 24 12 30 9 6 -4 5 1 -3 10 -11 14 -11 17 0 18 8 1 18 1 22 0 4 -1 2
9 -4 21 -12 22 -11 22 6 8 17 -14 18 -13 12 4 -7 17 -6 17 9 5 16 -13 16 -12
6 7 -9 16 -8 21 3 21 8 0 11 -5 8 -11 -3 -6 3 -2 14 9 14 13 16 22 9 27 -7 5
-7 8 2 8 7 0 11 4 8 9 -3 5 2 8 11 7 10 0 18 5 18 13 0 8 6 16 14 19 9 3 11 0
6 -8 -5 -9 -4 -11 4 -6 9 6 9 11 0 22 -10 12 -9 13 6 8 14 -6 16 -4 10 6 -6
10 -4 12 10 6 14 -5 16 -4 7 7 -16 19 -3 30 16 14 13 -11 14 -9 2 13 -11 21
-11 23 1 14 11 -9 17 -8 29 4 13 14 12 15 -3 9 -11 -4 -16 -3 -12 3 3 6 13 10
21 10 9 0 12 5 8 12 -5 8 -2 9 10 5 10 -4 15 -3 11 3 -6 9 8 14 28 11 5 -1 6
3 2 9 -3 6 -11 8 -16 4 -6 -3 -5 3 2 15 10 14 15 17 21 8 5 -9 10 -9 20 2 10
10 10 12 1 7 -7 -4 -13 -2 -13 4 0 6 11 15 25 20 14 5 24 15 23 22 -2 7 5 12
15 12 14 -2 15 1 6 12 -11 14 -1 20 25 15 5 -1 4 4 -3 13 -9 11 -9 16 0 22 8
5 9 3 4 -6 -5 -8 -3 -11 6 -8 8 3 13 11 11 18 -2 8 3 10 15 6 14 -6 16 -5 6 5
-18 18 -16 34 2 19 14 -12 19 -7 16 14 -3 15 21 36 41 36 17 0 18 2 8 15 -11
13 -10 14 5 8 14 -5 17 -3 12 10 -4 11 -2 14 7 11 7 -3 19 2 26 10 7 9 17 13
23 9 6 -4 7 -1 3 6 -6 9 -13 8 -29 -6 -22 -18 -22 -18 -4 3 9 11 15 23 12 26
-3 3 5 4 18 3 20 -2 24 1 21 22 -2 20 0 22 12 12 8 -7 14 -8 13 -3 -3 20 2 35
10 29 6 -3 17 10 27 30 9 19 20 32 25 29 5 -3 9 2 9 11 0 9 5 13 10 10 6 -3
10 -1 10 5 0 6 5 8 13 4 7 -5 6 0 -3 11 -8 10 -10 16 -3 12 13 -8 53 12 53 27
0 5 -10 1 -22 -10 l-22 -19 20 26 c10 15 22 25 27 22 4 -2 7 1 7 6 0 6 3 10 8
10 19 -3 26 2 12 11 -13 8 -13 11 -1 22 8 7 11 8 8 2 -4 -7 0 -14 7 -17 10 -4
13 0 11 14 -3 12 0 17 7 13 7 -5 9 -2 5 9 -4 12 -2 14 10 10 10 -4 14 -2 9 5
-3 6 3 13 14 17 11 4 19 14 18 22 -2 9 4 18 12 20 13 4 13 3 0 -7 -13 -10 -13
-11 0 -7 8 2 14 11 12 21 -2 11 4 16 18 16 12 0 19 4 16 9 -3 5 1 12 10 15 8
3 12 10 9 16 -3 5 -1 10 5 10 6 0 8 5 4 13 -6 8 -3 8 9 -1 14 -12 16 -11 12 8
-4 19 -2 20 12 8 13 -10 15 -10 9 0 -10 16 13 45 30 38 9 -3 11 0 7 11 -5 12
-3 14 8 8 11 -7 11 -5 -1 10 -13 17 -13 18 1 13 9 -4 20 2 28 14 7 11 8 17 2
13 -6 -3 -11 -4 -11 -1 0 3 9 10 19 15 16 9 18 8 15 -12 -4 -21 -4 -21 6 1 5
13 8 27 5 32 -8 13 24 33 42 26 10 -4 15 -4 11 -1 -3 4 0 18 7 32 8 15 12 30
9 35 -3 4 -1 8 5 8 5 0 12 -6 14 -12 3 -7 6 -2 6 11 1 24 2 24 15 6 13 -18 14
-17 11 8 -3 25 5 32 29 28 5 -1 3 5 -4 14 -11 13 -10 14 5 9 12 -5 16 -4 12 3
-6 10 19 28 34 25 4 -1 5 8 2 18 -3 11 -1 20 3 20 5 0 20 9 34 20 21 17 22 19
5 14 -18 -5 -18 -4 -2 6 9 6 22 8 28 4 8 -5 8 -1 0 14 -9 16 -7 19 7 18 9 0
16 5 14 12 -1 8 2 11 7 8 5 -3 15 2 22 11 12 14 12 16 0 8 -10 -5 -12 -4 -7 3
4 7 12 12 18 12 19 0 47 31 41 46 -3 9 1 14 12 14 10 0 13 -5 9 -12 -4 -7 -3
-8 5 -4 6 4 9 11 6 15 -2 5 3 17 11 27 9 10 12 13 8 5 -5 -10 -3 -12 5 -7 9 6
9 11 0 22 -10 12 -9 13 6 8 12 -5 16 -4 11 4 -3 6 2 17 12 24 10 7 21 21 25
31 4 10 13 17 21 15 8 -2 15 2 16 7 4 22 22 45 31 40 5 -4 9 3 9 14 0 12 4 21
10 21 5 0 7 -8 4 -17 -5 -14 -4 -15 4 -4 6 8 8 20 5 28 -3 9 0 11 10 7 8 -3
18 0 23 7 4 8 3 10 -4 5 -7 -4 -12 -2 -12 3 0 6 5 11 11 11 5 0 7 6 3 13 -5 7
0 6 11 -3 13 -10 16 -11 11 -2 -5 9 -1 19 14 29 12 8 19 21 16 30 -3 8 -1 11
4 8 6 -3 10 -1 10 5 0 6 5 8 10 5 6 -3 10 -1 10 5 0 6 4 8 10 5 5 -3 7 0 4 9
-5 14 31 43 48 38 4 -1 4 6 1 15 -4 11 -3 14 5 9 8 -5 10 -2 6 8 -4 10 -1 16
9 16 9 0 20 6 24 13 4 8 16 18 27 24 12 7 15 13 7 17 -6 4 -11 2 -11 -3 0 -6
-5 -11 -11 -11 -8 0 -8 5 1 15 7 8 15 13 19 11 4 -3 13 -1 21 5 10 6 11 9 3 9
-7 0 -13 4 -13 10 0 5 6 7 14 4 8 -3 17 0 22 7 5 8 3 10 -7 5 -15 -8 6 9 38
32 10 7 12 10 6 7 -7 -3 -13 -1 -13 4 0 6 7 11 15 11 8 0 15 9 15 21 0 11 4
18 10 14 5 -3 7 -13 4 -23 -3 -9 1 -7 8 6 8 12 18 19 23 15 4 -4 5 -2 1 5 -4
7 -12 9 -18 6 -7 -5 -8 -2 -4 5 5 7 14 10 22 7 8 -3 11 0 8 9 -3 8 3 16 15 20
12 3 19 11 15 16 -3 6 4 13 15 16 17 4 19 8 10 19 -8 10 -7 12 8 9 11 -2 26 1
34 7 11 8 10 9 -3 4 -10 -3 -18 -1 -18 4 0 13 36 31 46 22 5 -4 2 2 -6 12 -13
17 -13 18 -1 11 11 -6 13 -4 7 10 -5 15 -4 16 9 5 9 -7 18 -10 22 -6 3 3 1 6
-5 6 -7 0 -12 4 -12 10 0 5 8 6 18 3 15 -6 16 -5 2 12 -9 11 -10 16 -2 11 7
-4 12 -2 12 5 0 7 9 9 23 6 18 -4 19 -3 6 5 -14 9 -13 14 7 36 13 13 30 22 38
19 10 -4 13 1 12 18 -3 18 1 22 16 20 16 -3 17 -1 9 9 -8 10 -7 17 6 27 11 9
14 10 9 2 -4 -8 -2 -13 5 -13 6 0 9 8 6 19 -3 15 0 18 17 14 17 -4 18 -3 6 6
-13 9 -12 11 5 12 11 1 24 1 28 0 5 -1 6 3 2 9 -3 6 -10 8 -14 6 -4 -3 -8 1
-8 8 0 8 10 12 25 10 13 -1 21 0 18 3 -10 10 15 45 29 39 9 -3 12 0 9 8 -6 16
24 49 37 41 5 -4 6 2 2 11 -5 13 -3 15 7 9 10 -6 12 -4 7 9 -4 10 -3 15 3 11
11 -7 32 29 22 41 -4 5 1 2 11 -6 10 -7 17 -9 16 -4 -4 24 2 33 19 27 14 -6
15 -4 4 9 -9 11 -10 18 -2 23 5 3 10 3 10 -1 0 -4 13 4 28 19 16 15 32 24 37
20 4 -5 5 -2 1 5 -7 11 -13 10 -30 -5 -12 -10 -10 -7 4 7 15 14 35 31 46 38
10 7 13 10 7 7 -7 -3 -13 -1 -13 4 0 6 7 11 15 11 8 0 15 7 15 15 0 14 13 20
34 16 5 -1 3 5 -4 14 -11 13 -10 15 3 9 13 -4 15 -1 12 16 -2 13 -2 20 2 17 9
-10 63 33 63 49 0 8 5 12 10 9 6 -3 10 1 10 9 0 18 34 38 46 28 5 -4 0 4 -11
17 l-20 24 23 -12 c18 -10 22 -9 22 3 0 8 10 22 22 30 12 9 19 16 14 16 -5 0
-3 7 4 15 7 9 19 14 26 11 8 -3 11 3 10 19 -3 18 1 22 19 21 12 -2 23 3 24 11
1 7 2 21 3 31 1 10 8 19 14 19 7 0 10 -7 7 -16 -4 -14 -4 -14 6 -1 6 8 11 23
11 34 0 12 5 16 15 12 9 -3 15 0 15 8 0 8 7 17 16 20 8 3 13 9 11 14 -3 4 2
16 10 27 16 20 16 20 9 0 -6 -18 -5 -19 7 -3 8 10 16 15 19 13 3 -3 4 6 2 20
-2 22 0 24 12 14 8 -7 14 -8 13 -3 -3 19 1 35 9 30 5 -3 16 4 25 14 11 13 12
20 4 24 -7 2 -4 5 6 5 12 1 16 5 11 14 -6 9 -4 9 8 -1 14 -11 16 -10 11 8 -4
17 -2 19 13 13 17 -6 18 -5 4 12 -9 11 -10 16 -2 11 6 -4 12 -2 12 3 0 6 6 11
14 11 8 0 18 4 21 10 4 6 -1 7 -12 3 -10 -3 -16 -4 -13 -2 40 34 52 42 45 30
-6 -10 -4 -12 4 -7 9 6 9 11 0 22 -10 12 -9 13 6 8 13 -6 16 -4 10 5 -6 10 -2
11 16 6 13 -3 19 -3 14 2 -9 7 -11 16 -6 39 0 4 9 0 18 -7 11 -10 14 -10 9 -1
-4 7 -2 12 5 12 8 0 8 4 -1 15 -11 13 -10 14 6 9 10 -4 16 -4 12 0 -9 10 14
36 25 29 5 -3 7 3 5 13 -2 14 3 19 20 18 17 -1 20 2 12 11 -8 10 -8 15 1 21 8
5 9 3 4 -6 -6 -9 -4 -11 4 -6 7 5 10 14 7 21 -3 9 2 12 14 10 13 -3 17 1 13
11 -3 7 2 17 12 20 9 4 14 13 10 22 -4 12 -3 12 9 3 11 -9 15 -8 20 5 9 22 8
26 -6 18 -7 -4 -8 -3 -4 5 6 9 11 9 24 -1 13 -11 15 -11 10 3 -4 9 2 20 13 27
10 7 19 19 19 27 0 9 13 23 30 34 16 10 27 21 24 24 -9 9 16 38 26 32 5 -3 12
0 16 6 4 8 3 9 -4 5 -7 -4 -12 -2 -12 3 0 6 7 11 16 11 8 0 12 5 9 10 -3 6 -1
10 5 10 7 0 9 7 6 17 -6 14 -3 14 16 -3 14 -12 18 -13 10 -3 -10 13 -9 19 2
28 14 12 14 40 0 63 -4 7 -3 8 4 4 7 -4 12 -2 12 3 0 18 -5 26 -13 23 -5 -1
-5 2 -2 8 4 6 9 9 12 6 6 -6 43 26 43 37 0 5 -7 1 -16 -7 -8 -9 -21 -16 -27
-16 -7 0 -1 9 13 20 18 14 28 16 38 8 10 -9 12 -8 10 3 -2 8 4 13 14 11 12 -2
16 4 14 23 -2 17 2 25 13 25 14 0 14 2 1 10 -8 5 -10 10 -5 10 18 0 15 41 -5
63 -11 11 -16 25 -12 31 10 17 11 37 1 30 -5 -3 -7 -10 -4 -15 3 -5 -1 -6 -9
-3 -9 3 -13 10 -10 15 3 5 0 9 -6 9 -7 0 -9 7 -6 16 3 8 2 12 -4 9 -6 -3 -10
-1 -10 5 0 6 -4 8 -10 5 -5 -3 -10 1 -10 9 0 9 -5 16 -11 16 -5 0 -7 -5 -3
-12 4 -6 3 -8 -4 -4 -6 3 -9 15 -7 25 3 15 -2 18 -20 16 -14 -1 -22 2 -19 6 3
5 0 9 -7 9 -8 0 -7 5 2 16 12 15 11 16 -9 10 -16 -5 -22 -4 -20 5 2 7 -4 13
-12 14 -9 0 -14 8 -12 19 3 14 -1 17 -20 12 -13 -3 -17 -3 -9 0 11 5 8 10 -10
21 l-24 14 25 -5 c23 -5 23 -4 -3 6 -18 8 -26 17 -22 27 3 9 3 12 -1 8 -4 -4
-14 2 -22 14 -8 11 -20 18 -28 15 -9 -3 -11 0 -7 11 4 11 2 14 -5 9 -11 -7
-16 5 -13 31 1 6 -3 14 -9 18 -6 3 -7 0 -4 -10 12 -30 -40 4 -57 38 -9 18 -24
31 -33 31 -8 -1 -14 2 -11 6 3 5 -1 15 -9 23 -8 8 -12 18 -8 22 4 5 2 5 -4 2
-6 -4 -20 1 -30 9 -10 9 -14 13 -8 10 6 -3 11 2 11 10 0 8 -5 13 -12 11 -6 -3
-19 1 -30 9 -14 10 -15 14 -4 14 8 1 3 7 -11 15 -14 8 -21 14 -17 15 12 0 -14
23 -45 39 -15 8 -25 18 -22 23 3 4 0 8 -6 8 -6 0 -8 5 -5 10 3 6 -3 10 -13 10
-11 0 -23 7 -26 16 -5 14 -4 15 8 5 11 -9 16 -9 22 0 4 7 3 9 -3 6 -5 -4 -19
2 -30 13 -15 14 -23 16 -32 7 -6 -6 -11 -7 -11 -1 0 5 6 16 13 23 6 7 8 12 2
11 -5 -2 -17 -2 -25 -1 -13 1 -13 2 0 12 12 9 11 10 -7 6 -17 -4 -21 -1 -18
14 3 13 -1 16 -12 12 -12 -5 -14 -1 -8 18 3 14 3 19 -2 12 -6 -8 -14 -5 -29
12 -12 13 -19 27 -15 32 3 4 -3 1 -13 -7 -13 -10 -17 -10 -12 -2 4 7 2 12 -4
12 -6 0 -8 5 -4 12 5 7 2 9 -8 5 -10 -3 -15 0 -14 11 1 12 -6 17 -21 16 -13
-1 -20 3 -17 7 3 5 10 6 16 3 6 -4 6 2 -1 15 -7 11 -17 20 -24 18 -7 -1 -11 6
-11 15 1 10 -1 17 -5 16 -25 -3 -41 4 -35 14 5 8 2 9 -10 5 -9 -4 -15 -3 -11
2 10 17 -7 43 -26 38 -15 -4 -17 -2 -9 13 9 16 7 18 -11 15 -16 -3 -18 -1 -10
9 15 18 1 28 -18 14 -9 -7 -13 -9 -10 -5 4 5 -4 19 -18 33 -14 14 -21 29 -17
37 6 9 4 9 -8 -1 -13 -10 -17 -10 -22 4 -3 9 -4 20 -1 24 3 5 -4 7 -16 5 -17
-4 -20 -2 -11 7 7 7 12 17 12 23 0 5 -5 3 -10 -5 -7 -12 -10 -12 -10 -1 0 7
-6 11 -14 8 -10 -4 -13 -1 -10 8 9 23 -5 38 -22 24 -10 -8 -14 -8 -12 -1 2 6
-6 18 -17 26 l-20 16 20 -5 c11 -3 5 2 -13 10 -18 9 -30 20 -27 25 4 6 -1 13
-9 16 -9 3 -13 10 -10 15 3 5 2 9 -3 8 -21 -4 -31 3 -36 21 -3 11 -12 20 -20
20 -8 0 -18 7 -21 16 -5 14 -4 15 8 5 11 -9 16 -9 22 1 4 7 4 10 -1 6 -4 -4
-14 -3 -22 4 -7 6 -16 8 -20 5 -10 -11 -32 13 -26 29 3 8 0 14 -7 14 -19 0
-57 34 -52 48 2 6 -1 12 -8 12 -6 0 -8 5 -4 13 6 9 4 9 -8 -1 -13 -10 -18 -10
-24 -1 -4 8 -3 9 4 5 21 -13 13 10 -10 30 -16 13 -19 14 -10 2 10 -12 10 -18
1 -24 -8 -4 -9 -3 -5 5 4 6 1 14 -8 17 -8 3 -12 12 -9 20 3 8 -1 14 -11 14 -9
0 -16 7 -16 16 0 10 -5 14 -16 10 -8 -3 -12 -2 -9 4 3 6 1 10 -4 10 -6 0 -11
6 -11 14 0 7 -8 20 -17 27 -17 13 -17 13 -3 -6 14 -19 14 -19 -2 -6 -10 7 -18
20 -18 28 0 8 -4 11 -10 8 -5 -3 -10 -2 -10 3 0 5 -10 14 -22 21 -13 6 -15 9
-6 7 12 -4 15 -1 11 10 -3 7 -10 14 -17 14 -6 0 -22 9 -36 20 -14 11 -18 19
-10 17 8 -2 12 -2 7 0 -4 3 -5 9 -2 14 4 5 -1 6 -9 3 -14 -5 -21 9 -18 37 1 3
-6 6 -14 6 -10 0 -11 -4 -4 -11 21 -21 9 -24 -13 -3 -13 12 -22 30 -21 40 3
14 0 16 -10 8 -14 -12 -36 4 -36 26 0 8 -10 24 -21 36 -12 12 -18 15 -14 7 6
-10 1 -8 -13 4 -24 21 -29 31 -9 20 6 -4 2 3 -10 15 -12 11 -26 21 -31 21 -5
0 -17 10 -28 22 -13 16 -14 19 -2 10 12 -10 18 -10 24 -1 4 7 3 9 -4 5 -6 -3
-14 -1 -17 5 -4 5 -14 8 -24 4 -12 -5 -13 -3 -5 5 9 9 4 19 -19 41 -17 16 -36
28 -43 25 -8 -3 -11 1 -7 10 3 7 0 14 -7 14 -6 0 -8 6 -4 13 4 6 4 9 -1 5 -11
-11 -45 10 -45 28 0 9 -5 12 -12 8 -8 -5 -9 -2 -5 10 4 10 3 15 -3 11 -6 -3
-13 1 -16 9 -3 9 -10 13 -15 10 -5 -3 -9 2 -9 10 0 9 -4 16 -8 16 -5 0 -13 12
-20 28 -10 25 -11 25 -6 2 6 -24 6 -24 -10 -5 -8 11 -16 26 -16 34 0 11 -3 11
-17 0 -15 -13 -15 -12 -5 8 17 31 15 40 -4 17 -15 -19 -15 -19 -11 3 3 15 1
20 -9 16 -8 -3 -14 1 -14 11 0 15 -12 21 -33 17 -5 -1 -6 3 -2 9 3 5 1 18 -5
27 -10 16 -11 16 -6 1 3 -12 1 -15 -10 -11 -8 3 -13 8 -10 10 3 3 -5 14 -17
25 -12 11 -16 17 -9 13 6 -3 12 -1 12 4 0 6 -8 11 -17 11 -10 0 -26 7 -36 14
-18 14 -18 15 0 26 12 8 13 10 2 7 -8 -3 -21 4 -27 14 -7 10 -17 19 -23 19 -5
0 -7 -5 -3 -12 4 -6 3 -8 -4 -4 -6 3 -9 15 -7 26 3 13 -1 17 -11 13 -17 -6
-19 13 -1 21 6 2 1 4 -12 3 -19 -2 -30 7 -49 38 -13 22 -21 31 -18 20 6 -19 6
-19 -9 -1 -8 10 -11 24 -8 30 4 6 -1 5 -11 -3 -14 -12 -17 -12 -14 -1 2 8 -5
14 -17 15 -14 0 -19 6 -18 20 2 12 -8 27 -25 39 l-27 19 25 -29 c18 -20 19
-24 4 -11 -11 9 -23 14 -27 11 -8 -9 -3 19 7 35 7 10 5 12 -4 6 -9 -6 -12 1
-8 28 2 24 0 33 -7 28 -6 -5 -16 -2 -25 7 -13 14 -12 15 2 10 12 -5 15 -2 10
14 -4 15 -7 17 -13 6 -8 -12 -13 -4 -10 15 0 4 -5 6 -11 5 -7 -2 -12 4 -10 12
3 12 1 13 -9 3 -19 -18 -29 -16 -22 5 6 15 5 15 -10 3 -15 -12 -20 -11 -36 3
-13 12 -21 14 -26 6 -3 -5 -10 -8 -15 -5 -5 3 -12 0 -16 -6 -5 -9 -11 -7 -21
6 -8 13 -13 14 -13 5z m83 -14 c4 -10 1 -13 -8 -9 -8 3 -12 9 -9 14 7 12 11
11 17 -5z m-173 -6 c0 -5 -5 -10 -11 -10 -5 0 -7 5 -4 10 3 6 8 10 11 10 2 0
4 -4 4 -10z m97 -7 c0 -9 -4 -10 -14 -2 -7 6 -13 12 -13 14 0 1 6 2 13 2 8 0
14 -6 14 -14z m-2717 -67 c0 -2 -6 -9 -14 -15 -11 -9 -16 -9 -22 0 -4 7 -3 9
4 5 6 -3 13 -2 17 4 6 10 15 14 15 6z m220 -6 c0 -5 -5 -10 -11 -10 -5 0 -7 5
-4 10 3 6 8 10 11 10 2 0 4 -4 4 -10z m-2962 -115 c-3 -3 -9 2 -12 12 -6 14
-5 15 5 6 7 -7 10 -15 7 -18z m186 17 c3 -5 -1 -9 -9 -9 -8 0 -12 4 -9 9 3 4
7 8 9 8 2 0 6 -4 9 -8z m-1624 -62 c0 -5 -5 -10 -11 -10 -5 0 -7 5 -4 10 3 6
8 10 11 10 2 0 4 -4 4 -10z m7834 -609 c4 -5 -3 -7 -14 -4 -23 6 -26 13 -6 13
8 0 17 -4 20 -9z m-9024 -451 c0 -5 -5 -10 -11 -10 -5 0 -7 5 -4 10 3 6 8 10
11 10 2 0 4 -4 4 -10z m9490 -351 c0 -5 -4 -9 -8 -9 -5 0 -9 7 -9 15 0 8 4 12
9 9 4 -3 8 -9 8 -15z m1324 -1027 c3 -5 -1 -9 -9 -9 -8 0 -12 4 -9 9 3 4 7 8
9 8 2 0 6 -4 9 -8z m196 -608 c0 -8 -19 -13 -24 -6 -3 5 1 9 9 9 8 0 15 -2 15
-3z m-12310 -364 c0 -5 -2 -10 -4 -10 -3 0 -8 5 -11 10 -3 6 -1 10 4 10 6 0
11 -4 11 -10z m24 -26 c3 -8 2 -12 -4 -9 -6 3 -10 10 -10 16 0 14 7 11 14 -7z
m326 -324 c0 -5 -2 -10 -4 -10 -3 0 -8 5 -11 10 -3 6 -1 10 4 10 6 0 11 -4 11
-10z m1085 -1020 c3 -6 -1 -7 -9 -4 -18 7 -21 14 -7 14 6 0 13 -4 16 -10z
m529 -496 c3 -8 2 -12 -4 -9 -6 3 -10 10 -10 16 0 14 7 11 14 -7z m7947 -467
c-10 -9 -11 -8 -5 6 3 10 9 15 12 12 3 -3 0 -11 -7 -18z m-7121 -293 c0 -8
-19 -13 -24 -6 -3 5 1 9 9 9 8 0 15 -2 15 -3z m6825 -34 c-3 -5 -12 -10 -18
-10 -7 0 -6 4 3 10 19 12 23 12 15 0z m-6020 -718 c-3 -3 -11 0 -18 7 -9 10
-8 11 6 5 10 -3 15 -9 12 -12z m1390 -1301 c-6 -5 -25 10 -25 20 0 5 6 4 14
-3 8 -7 12 -15 11 -17z m512 -466 c0 -8 -4 -12 -9 -9 -5 3 -6 10 -3 15 9 13
12 11 12 -6z m93 -95 c0 -5 -2 -10 -4 -10 -3 0 -8 5 -11 10 -3 6 -1 10 4 10 6
0 11 -4 11 -10z m1480 -160 c0 -5 -5 -10 -11 -10 -5 0 -7 5 -4 10 3 6 8 10 11
10 2 0 4 -4 4 -10z m-309 -113 c-10 -9 -11 -8 -5 6 3 10 9 15 12 12 3 -3 0
-11 -7 -18z m49 -193 c0 -8 -19 -13 -24 -6 -3 5 1 9 9 9 8 0 15 -2 15 -3z"/>
<path d="M14530 13512 c0 -4 9 -13 20 -20 11 -7 20 -9 20 -4 0 4 -9 13 -20 20
-11 7 -20 9 -20 4z"/>
<path d="M13700 13390 c-9 -6 -10 -10 -3 -10 6 0 15 5 18 10 8 12 4 12 -15 0z"/>
<path d="M13805 13301 c-3 -5 -2 -12 3 -15 5 -3 9 1 9 9 0 17 -3 19 -12 6z"/>
<path d="M15611 13014 c-13 -14 -30 -23 -36 -20 -7 2 -12 -3 -11 -12 0 -9 -4
-16 -11 -15 -7 2 -10 -6 -8 -17 3 -18 1 -19 -18 -8 -20 10 -21 10 -8 -5 12
-15 11 -17 -4 -17 -14 0 -15 -3 -5 -15 11 -13 10 -14 -4 -9 -11 4 -16 1 -16
-12 0 -16 -2 -17 -10 -4 -8 12 -10 11 -10 -6 0 -12 -7 -24 -15 -28 -9 -3 -12
-12 -8 -22 5 -14 3 -16 -12 -10 -11 4 -16 4 -12 0 4 -4 2 -13 -4 -21 -6 -7 -8
-13 -4 -13 4 0 2 -6 -4 -14 -8 -9 -8 -16 -2 -20 6 -4 7 -14 4 -23 -5 -12 -3
-14 7 -8 10 6 12 4 7 -8 -4 -10 0 -17 11 -20 15 -4 15 -5 -1 -6 -15 -1 -16 -4
-6 -23 11 -21 11 -22 -5 -9 -14 12 -16 12 -10 -4 6 -14 4 -16 -7 -10 -12 8
-12 6 0 -8 11 -15 11 -17 -2 -17 -13 0 -16 -16 -7 -40 1 -3 2 -9 1 -13 -1 -5
3 -6 9 -2 8 5 7 12 -2 23 -11 15 -11 15 3 4 10 -7 15 -22 13 -35 -2 -12 -1
-16 2 -9 5 10 9 10 22 0 9 -7 13 -8 9 -2 -3 6 0 11 8 11 8 0 12 -4 10 -8 -3
-4 6 -6 19 -5 13 0 22 4 19 9 -2 4 2 7 11 7 8 0 16 3 19 8 2 4 2 1 1 -5 -5
-18 15 -16 22 2 4 8 10 15 16 15 5 0 7 -4 3 -9 -3 -5 0 -13 6 -17 7 -4 9 -3 6
3 -4 6 1 17 10 24 12 10 14 10 9 2 -4 -7 -3 -13 3 -13 5 0 11 6 13 12 5 15 40
17 50 3 5 -6 8 -3 8 7 0 12 6 15 23 11 18 -4 19 -3 7 7 -12 10 -11 11 8 7 19
-5 21 -3 11 9 -13 16 2 19 18 3 8 -8 13 -7 18 2 6 8 4 10 -5 4 -10 -6 -12 -4
-7 9 4 10 7 20 7 22 0 2 7 4 15 4 8 0 15 5 15 11 0 5 -5 7 -12 3 -7 -4 -8 -3
-4 4 4 7 13 12 21 12 8 0 17 5 21 12 5 8 2 9 -9 5 -14 -5 -15 -3 -5 13 7 10
15 17 19 14 4 -2 10 0 13 5 4 5 1 13 -5 17 -8 5 -9 3 -4 -6 5 -9 4 -11 -4 -6
-15 9 -3 29 13 23 9 -4 11 3 8 20 -4 20 -2 24 9 18 8 -5 11 -4 6 0 -4 5 1 17
10 28 10 11 13 17 7 14 -7 -4 -18 1 -25 10 -8 9 -9 14 -3 10 7 -4 15 0 18 9 3
8 2 13 -3 10 -14 -9 -21 20 -8 33 8 8 5 11 -13 12 -23 0 -23 1 -5 9 18 8 18 9
2 9 -12 1 -16 5 -11 14 5 7 0 6 -11 -3 -15 -12 -17 -12 -10 -1 6 11 4 13 -10
7 -16 -6 -16 -4 -4 11 7 10 10 15 5 11 -5 -4 -17 -3 -27 3 -11 5 -19 6 -19 1
0 -4 -11 -8 -24 -8 -15 0 -23 6 -22 16 1 8 -5 14 -13 12 -8 -2 -11 3 -8 11 3
9 -3 13 -19 13 -14 0 -23 -5 -20 -11 2 -7 -2 -12 -10 -12 -8 0 -13 6 -10 14 7
18 5 17 -23 -13z m-177 -233 c3 -5 -2 -15 -12 -22 -15 -12 -16 -12 -5 2 7 9
10 19 6 22 -3 4 -4 7 0 7 3 0 8 -4 11 -9z"/>
<path d="M14246 12852 c-3 -5 1 -9 9 -9 8 0 12 4 9 9 -3 4 -7 8 -9 8 -2 0 -6
-4 -9 -8z"/>
<path d="M3471 12613 c3 -19 -2 -27 -10 -15 -7 11 -9 10 -14 -3 -4 -9 -3 -14
2 -11 5 3 11 -1 14 -9 4 -9 1 -12 -7 -9 -8 3 -17 1 -21 -5 -4 -7 3 -11 17 -11
16 0 19 -3 10 -9 -11 -7 -10 -9 3 -15 9 -3 14 -10 10 -15 -3 -5 0 -13 6 -17 8
-4 9 -3 5 4 -4 7 -2 12 4 12 7 0 9 -8 5 -21 -5 -14 -1 -25 11 -33 13 -10 14
-15 4 -21 -9 -6 -11 -4 -5 5 6 10 4 12 -9 7 -10 -4 -15 -3 -11 3 3 6 1 10 -5
10 -6 0 -9 4 -5 9 3 5 0 13 -6 17 -8 4 -9 3 -5 -4 5 -8 0 -12 -13 -12 -11 0
-23 -5 -26 -10 -5 -7 -11 -8 -19 -1 -8 7 -17 6 -26 -1 -13 -8 -13 -9 1 -5 9 3
16 -1 16 -8 0 -7 -5 -11 -11 -9 -7 3 -13 -6 -14 -20 -1 -14 5 -26 14 -30 12
-5 13 -10 4 -27 -10 -17 -8 -21 9 -26 11 -3 18 -9 15 -14 -5 -9 9 -13 31 -10
6 1 1 -6 -10 -15 -12 -10 -14 -15 -5 -12 17 6 42 -16 32 -28 -4 -5 2 -2 13 6
11 8 17 11 13 6 -3 -4 2 -16 13 -27 11 -11 17 -25 13 -30 -4 -7 4 -6 17 2 23
12 23 11 9 -6 -9 -11 -10 -16 -2 -11 6 4 12 2 12 -3 0 -6 6 -11 13 -11 8 0 19
-10 26 -22 l11 -23 -6 23 c-3 12 -1 22 5 22 6 0 10 -3 10 -7 -4 -23 3 -35 16
-29 10 4 15 -1 16 -17 0 -21 1 -21 9 -2 8 19 8 19 17 -4 8 -21 11 -22 16 -7 6
16 9 16 29 2 26 -19 42 -21 32 -4 -5 8 0 9 15 5 19 -5 20 -3 9 10 -12 15 -10
15 12 3 14 -7 21 -9 17 -4 -4 4 3 14 15 22 16 9 17 12 4 7 -15 -4 -17 -3 -8 8
7 8 10 16 7 19 -8 8 84 90 95 83 5 -3 11 -1 15 4 3 6 -4 8 -16 6 -18 -4 -19
-2 -8 11 10 13 10 17 0 24 -11 6 -11 9 0 13 12 5 12 6 0 6 -11 1 -11 4 0 18
10 11 10 14 2 9 -8 -4 -13 -1 -13 9 0 9 -4 14 -9 11 -4 -3 -16 12 -26 34 -16
36 -19 38 -31 22 -13 -16 -14 -16 -8 1 7 20 -6 22 -25 5 -11 -10 -13 -10 -7 0
7 11 -20 18 -49 12 -5 -1 -4 4 3 11 6 7 12 18 12 23 0 6 -5 4 -11 -4 -8 -11
-12 -12 -16 -2 -2 7 -14 17 -25 23 -16 9 -19 8 -13 -2 13 -20 -35 17 -51 40
-9 13 -21 18 -31 14 -12 -5 -14 -3 -8 7 5 9 4 11 -4 6 -6 -4 -14 0 -17 9 -5
11 -10 13 -19 5 -9 -8 -14 -6 -19 5 -4 11 -2 14 6 9 7 -4 8 -3 4 4 -5 9 -13 9
-28 1 -12 -6 -18 -7 -14 -1 3 5 -1 13 -10 16 -20 8 -24 8 -23 -1z m154 -73 c3
-5 1 -10 -4 -10 -6 0 -11 5 -11 10 0 6 2 10 4 10 3 0 8 -4 11 -10z m-100 -70
c3 -6 -1 -7 -9 -4 -18 7 -21 14 -7 14 6 0 13 -4 16 -10z m25 -30 c0 -5 -2 -10
-4 -10 -3 0 -8 5 -11 10 -3 6 -1 10 4 10 6 0 11 -4 11 -10z m-5 -28 c-3 -3
-11 0 -18 7 -9 10 -8 11 6 5 10 -3 15 -9 12 -12z m-128 -68 c-3 -3 -12 -4 -19
-1 -8 3 -5 6 6 6 11 1 17 -2 13 -5z"/>
<path d="M14520 12561 c0 -6 4 -13 10 -16 6 -3 7 1 4 9 -7 18 -14 21 -14 7z"/>
<path d="M3650 12529 c0 -5 5 -7 10 -4 6 3 10 8 10 11 0 2 -4 4 -10 4 -5 0
-10 -5 -10 -11z"/>
<path d="M3417 12483 c-4 -3 -7 -11 -7 -17 0 -6 5 -5 12 2 6 6 9 14 7 17 -3 3
-9 2 -12 -2z"/>
<path d="M3860 12425 c0 -5 5 -17 10 -25 5 -8 10 -10 10 -5 0 6 -5 17 -10 25
-5 8 -10 11 -10 5z"/>
<path d="M14710 12380 c0 -5 5 -10 11 -10 5 0 7 5 4 10 -3 6 -8 10 -11 10 -2
0 -4 -4 -4 -10z"/>
<path d="M3869 12230 c-13 -10 -20 -19 -16 -20 4 0 17 9 29 20 28 26 17 26
-13 0z"/>
<path d="M3825 12191 c-3 -5 -2 -12 3 -15 5 -3 9 1 9 9 0 17 -3 19 -12 6z"/>
<path d="M14942 12134 c10 -10 20 -16 22 -13 3 3 -5 11 -17 18 -21 13 -21 12
-5 -5z"/>
<path d="M16475 12090 c-3 -5 -1 -10 4 -10 6 0 11 5 11 10 0 6 -2 10 -4 10 -3
0 -8 -4 -11 -10z"/>
<path d="M14990 12079 c0 -5 5 -7 10 -4 6 3 10 8 10 11 0 2 -4 4 -10 4 -5 0
-10 -5 -10 -11z"/>
<path d="M16451 12068 c11 -20 11 -22 -3 -10 -19 15 -34 0 -22 -20 5 -9 2 -9
-9 1 -15 12 -21 9 -18 -11 0 -4 -7 -4 -16 -1 -11 4 -14 3 -9 -5 4 -7 1 -12
-10 -12 -14 0 -14 -3 -4 -15 11 -13 10 -14 -5 -9 -13 5 -16 4 -11 -5 6 -8 2
-11 -10 -9 -10 2 -19 -3 -19 -10 0 -7 -7 -17 -15 -23 -13 -10 -13 -10 1 -6 9
3 16 -1 16 -8 0 -8 -7 -11 -15 -7 -12 4 -14 0 -9 -17 5 -19 3 -21 -11 -9 -9 7
-14 9 -10 4 10 -12 -11 -48 -22 -41 -6 3 -7 0 -4 -8 3 -8 -5 -19 -18 -26 -13
-6 -16 -10 -7 -7 9 2 16 -2 16 -9 0 -8 -7 -11 -15 -7 -11 4 -14 1 -9 -12 4
-10 1 -19 -8 -23 -13 -4 -13 -8 -3 -21 12 -14 10 -14 -12 -2 -21 11 -23 11
-14 -1 14 -18 25 -61 13 -53 -5 3 -9 1 -9 -3 0 -5 9 -14 20 -21 16 -10 18 -17
11 -31 -7 -12 -6 -22 2 -31 9 -10 9 -11 -1 -5 -9 4 -15 0 -19 -14 -3 -12 -10
-18 -17 -14 -7 4 -7 1 1 -7 9 -10 9 -18 1 -34 -10 -19 -9 -19 5 -8 13 11 15
10 11 -6 -6 -21 10 -36 44 -45 20 -5 21 -3 11 9 -10 12 -10 15 2 12 8 -2 17
-7 21 -13 5 -6 8 -5 8 4 0 11 3 11 15 1 13 -11 14 -10 9 5 -6 14 -4 16 6 10 8
-5 17 -2 24 7 11 14 17 18 34 18 4 0 0 5 -8 11 -12 9 -11 10 8 6 12 -3 20 -2
18 2 -3 4 4 13 16 20 16 10 19 10 13 -1 -3 -7 0 -5 9 6 8 10 21 16 29 13 7 -3
14 1 14 9 0 7 -5 10 -10 7 -6 -3 -7 -1 -3 5 4 6 14 8 23 5 12 -5 15 -2 10 10
-5 13 -2 15 18 7 21 -8 23 -6 20 11 -3 16 0 19 12 15 14 -6 14 -4 2 11 -8 9
-9 14 -2 10 6 -4 18 -1 26 7 11 11 17 12 26 3 9 -9 11 -8 5 6 -8 22 14 50 34
42 13 -5 13 -3 1 11 -13 16 -12 16 11 4 23 -12 24 -12 11 3 -11 14 -11 18 2
23 9 3 18 12 21 20 3 9 1 12 -4 9 -6 -3 -10 -1 -10 4 0 6 7 11 15 11 8 0 15 5
15 10 0 6 -4 10 -10 10 -5 0 -10 5 -10 11 0 5 6 7 13 3 9 -6 9 -5 0 8 -7 8
-10 18 -6 22 4 3 8 13 9 22 2 13 0 13 -14 2 -13 -11 -14 -11 -7 1 5 9 2 19
-11 29 -18 13 -18 14 6 8 21 -6 22 -5 7 4 -10 6 -14 16 -10 23 4 7 -2 5 -12
-3 -11 -9 -16 -10 -11 -2 4 7 2 12 -6 12 -9 0 -9 3 2 10 13 8 12 10 -3 10 -10
0 -15 5 -12 10 3 6 -2 10 -12 10 -15 0 -16 2 -3 10 14 9 13 11 -9 14 -5 0 -13
5 -18 10 -4 5 -3 6 4 2 6 -3 14 -2 18 3 3 6 -5 8 -20 5 -27 -5 -32 4 -12 26
10 12 9 12 -5 2 -9 -7 -18 -9 -20 -5 -3 4 -3 3 -2 -4 2 -7 -3 -10 -11 -6 -8 3
-12 9 -9 15 3 5 -3 4 -15 -4 -17 -10 -25 -10 -42 0 -19 12 -19 12 -8 -10z
m-221 -572 c0 -3 -4 -8 -10 -11 -5 -3 -10 -1 -10 4 0 6 5 11 10 11 6 0 10 -2
10 -4z"/>
<path d="M15310 11761 c0 -6 4 -13 10 -16 6 -3 7 1 4 9 -7 18 -14 21 -14 7z"/>
<path d="M16605 11709 c-4 -6 -5 -12 -2 -15 2 -3 7 2 10 11 7 17 1 20 -8 4z"/>
<path d="M15800 11261 c0 -6 4 -13 10 -16 6 -3 7 1 4 9 -7 18 -14 21 -14 7z"/>
<path d="M16040 11011 c0 -6 4 -13 10 -16 6 -3 7 1 4 9 -7 18 -14 21 -14 7z"/>
<path d="M16420 10606 c0 -2 7 -9 15 -16 13 -11 14 -10 9 4 -5 14 -24 23 -24
12z"/>
<path d="M16195 10129 c-4 -6 -4 -13 -1 -16 3 -4 6 -1 6 6 0 7 5 9 12 5 7 -4
8 -3 4 4 -9 15 -13 15 -21 1z"/>
<path d="M15305 9129 c-4 -6 -5 -12 -2 -15 2 -3 7 2 10 11 7 17 1 20 -8 4z"/>
<path d="M5025 8951 c-3 -5 -2 -12 3 -15 5 -3 9 1 9 9 0 17 -3 19 -12 6z"/>
<path d="M14786 8554 c-5 -14 -4 -15 9 -4 17 14 19 20 6 20 -5 0 -12 -7 -15
-16z"/>
<path d="M5562 8446 c7 -8 15 -12 17 -11 5 6 -10 25 -20 25 -5 0 -4 -6 3 -14z"/>
<path d="M14070 7761 c0 -6 4 -13 10 -16 6 -3 7 1 4 9 -7 18 -14 21 -14 7z"/>
<path d="M6433 7635 c0 -8 4 -12 9 -9 5 3 6 10 3 15 -9 13 -12 11 -12 -6z"/>
<path d="M13815 7460 c3 -5 8 -10 11 -10 2 0 4 5 4 10 0 6 -5 10 -11 10 -5 0
-7 -4 -4 -10z"/>
<path d="M13596 7242 c-3 -5 1 -9 9 -9 8 0 12 4 9 9 -3 4 -7 8 -9 8 -2 0 -6
-4 -9 -8z"/>
<path d="M13125 6720 c-3 -6 1 -7 9 -4 18 7 21 14 7 14 -6 0 -13 -4 -16 -10z"/>
<path d="M12926 6512 c-3 -5 1 -9 9 -9 8 0 12 4 9 9 -3 4 -7 8 -9 8 -2 0 -6
-4 -9 -8z"/>
<path d="M8116 6072 c-3 -5 1 -9 9 -9 8 0 12 4 9 9 -3 4 -7 8 -9 8 -2 0 -6 -4
-9 -8z"/>
<path d="M8336 5862 c-3 -5 1 -9 9 -9 8 0 12 4 9 9 -3 4 -7 8 -9 8 -2 0 -6 -4
-9 -8z"/>
<path d="M12221 5746 c-9 -11 -9 -16 0 -22 7 -4 9 -3 5 4 -3 6 2 15 11 21 10
6 13 11 7 11 -6 0 -17 -6 -23 -14z"/>
<path d="M8811 5424 c0 -11 3 -14 6 -6 3 7 2 16 -1 19 -3 4 -6 -2 -5 -13z"/>
<path d="M11723 5205 c0 -8 4 -12 9 -9 5 3 6 10 3 15 -9 13 -12 11 -12 -6z"/>
<path d="M11645 5129 c-4 -6 -5 -12 -2 -15 2 -3 7 2 10 11 7 17 1 20 -8 4z"/>
<path d="M11165 4620 c-3 -5 -1 -10 4 -10 6 0 11 5 11 10 0 6 -2 10 -4 10 -3
0 -8 -4 -11 -10z"/>
<path d="M9896 4382 c-3 -5 1 -9 9 -9 8 0 12 4 9 9 -3 4 -7 8 -9 8 -2 0 -6 -4
-9 -8z"/>
</g>
</svg>
